<?xml version="1.0" encoding="UTF-8"?> <svg xmlns:xlink="http://www.w3.org/1999/xlink" xmlns="http://www.w3.org/2000/svg" version="1.1" viewBox="0.0 0.0 600.0 371.0" fill="none" stroke="none" stroke-linecap="square" stroke-miterlimit="10" width="600" height="371"><path fill="#ffffff" d="M0 0L600.0 0L600.0 371.0L0 371.0L0 0Z" fill-rule="nonzero"></path><path stroke="#000000" stroke-width="1.0" stroke-linecap="butt" d="M581.5 289.5L84.5 289.5" fill-rule="nonzero"></path><path stroke="#000000" stroke-width="1.0" stroke-linecap="butt" d="M84.5 289.5L84.5 61.5" fill-rule="nonzero"></path><clipPath id="id_0"><path d="M84.55 61.916668L581.45 61.916668L581.45 289.70126L84.55 289.70126L84.55 61.916668Z" clip-rule="nonzero"></path></clipPath><path stroke="#000000" stroke-width="2.0" stroke-linecap="butt" stroke-opacity="0.0" clip-path="url(#id_0)" d="M111.0 290.0L94.0 290.0L94.0 288.5C94.0 287.67157 94.67157 287.0 95.5 287.0L109.5 287.0C110.32843 287.0 111.0 287.67157 111.0 288.5Z" fill-rule="nonzero"></path><path fill="#4285f4" clip-path="url(#id_0)" d="M111.0 290.0L94.0 290.0L94.0 288.5C94.0 287.67157 94.67157 287.0 95.5 287.0L109.5 287.0C110.32843 287.0 111.0 287.67157 111.0 288.5Z" fill-rule="nonzero"></path><path stroke="#000000" stroke-width="2.0" stroke-linecap="butt" stroke-opacity="0.0" clip-path="url(#id_0)" d="M137.0 290.0L120.0 290.0L120.0 286.0C120.0 284.89542 120.89543 284.0 122.0 284.0L135.0 284.0C136.10457 284.0 137.0 284.89542 137.0 286.0Z" fill-rule="nonzero"></path><path fill="#4285f4" clip-path="url(#id_0)" d="M137.0 290.0L120.0 290.0L120.0 286.0C120.0 284.89542 120.89543 284.0 122.0 284.0L135.0 284.0C136.10457 284.0 137.0 284.89542 137.0 286.0Z" fill-rule="nonzero"></path><path stroke="#000000" stroke-width="2.0" stroke-linecap="butt" stroke-opacity="0.0" clip-path="url(#id_0)" d="M162.0 290.0L145.0 290.0L145.0 278.0C145.0 276.89542 145.89543 276.0 147.0 276.0L160.0 276.0C161.10457 276.0 162.0 276.89542 162.0 278.0Z" fill-rule="nonzero"></path><path fill="#4285f4" clip-path="url(#id_0)" d="M162.0 290.0L145.0 290.0L145.0 278.0C145.0 276.89542 145.89543 276.0 147.0 276.0L160.0 276.0C161.10457 276.0 162.0 276.89542 162.0 278.0Z" fill-rule="nonzero"></path><path stroke="#000000" stroke-width="2.0" stroke-linecap="butt" stroke-opacity="0.0" clip-path="url(#id_0)" d="M188.0 290.0L171.0 290.0L171.0 264.0C171.0 262.89542 171.89543 262.0 173.0 262.0L186.0 262.0C187.10457 262.0 188.0 262.89542 188.0 264.0Z" fill-rule="nonzero"></path><path fill="#4285f4" clip-path="url(#id_0)" d="M188.0 290.0L171.0 290.0L171.0 264.0C171.0 262.89542 171.89543 262.0 173.0 262.0L186.0 262.0C187.10457 262.0 188.0 262.89542 188.0 264.0Z" fill-rule="nonzero"></path><path stroke="#000000" stroke-width="2.0" stroke-linecap="butt" stroke-opacity="0.0" clip-path="url(#id_0)" d="M214.0 290.0L197.0 290.0L197.0 241.0C197.0 239.89543 197.89543 239.0 199.0 239.0L212.0 239.0C213.10457 239.0 214.0 239.89543 214.0 241.0Z" fill-rule="nonzero"></path><path fill="#4285f4" clip-path="url(#id_0)" d="M214.0 290.0L197.0 290.0L197.0 241.0C197.0 239.89543 197.89543 239.0 199.0 239.0L212.0 239.0C213.10457 239.0 214.0 239.89543 214.0 241.0Z" fill-rule="nonzero"></path><path stroke="#000000" stroke-width="2.0" stroke-linecap="butt" stroke-opacity="0.0" clip-path="url(#id_0)" d="M239.0 290.0L222.0 290.0L222.0 209.0C222.0 207.89543 222.89543 207.0 224.0 207.0L237.0 207.0C238.10457 207.0 239.0 207.89543 239.0 209.0Z" fill-rule="nonzero"></path><path fill="#4285f4" clip-path="url(#id_0)" d="M239.0 290.0L222.0 290.0L222.0 209.0C222.0 207.89543 222.89543 207.0 224.0 207.0L237.0 207.0C238.10457 207.0 239.0 207.89543 239.0 209.0Z" fill-rule="nonzero"></path><path stroke="#000000" stroke-width="2.0" stroke-linecap="butt" stroke-opacity="0.0" clip-path="url(#id_0)" d="M265.0 290.0L248.0 290.0L248.0 169.0C248.0 167.89543 248.89543 167.0 250.0 167.0L263.0 167.0C264.10458 167.0 265.0 167.89543 265.0 169.0Z" fill-rule="nonzero"></path><path fill="#4285f4" clip-path="url(#id_0)" d="M265.0 290.0L248.0 290.0L248.0 169.0C248.0 167.89543 248.89543 167.0 250.0 167.0L263.0 167.0C264.10458 167.0 265.0 167.89543 265.0 169.0Z" fill-rule="nonzero"></path><path stroke="#000000" stroke-width="2.0" stroke-linecap="butt" stroke-opacity="0.0" clip-path="url(#id_0)" d="M291.0 290.0L274.0 290.0L274.0 130.0C274.0 128.89543 274.89542 128.0 276.0 128.0L289.0 128.0C290.10458 128.0 291.0 128.89543 291.0 130.0Z" fill-rule="nonzero"></path><path fill="#4285f4" clip-path="url(#id_0)" d="M291.0 290.0L274.0 290.0L274.0 130.0C274.0 128.89543 274.89542 128.0 276.0 128.0L289.0 128.0C290.10458 128.0 291.0 128.89543 291.0 130.0Z" fill-rule="nonzero"></path><path stroke="#000000" stroke-width="2.0" stroke-linecap="butt" stroke-opacity="0.0" clip-path="url(#id_0)" d="M316.0 290.0L299.0 290.0L299.0 101.0C299.0 99.89543 299.89542 99.0 301.0 99.0L314.0 99.0C315.10458 99.0 316.0 99.89543 316.0 101.0Z" fill-rule="nonzero"></path><path fill="#4285f4" clip-path="url(#id_0)" d="M316.0 290.0L299.0 290.0L299.0 101.0C299.0 99.89543 299.89542 99.0 301.0 99.0L314.0 99.0C315.10458 99.0 316.0 99.89543 316.0 101.0Z" fill-rule="nonzero"></path><path stroke="#000000" stroke-width="2.0" stroke-linecap="butt" stroke-opacity="0.0" clip-path="url(#id_0)" d="M342.0 290.0L325.0 290.0L325.0 90.0C325.0 88.89543 325.89542 88.0 327.0 88.0L340.0 88.0C341.10458 88.0 342.0 88.89543 342.0 90.0Z" fill-rule="nonzero"></path><path fill="#4285f4" clip-path="url(#id_0)" d="M342.0 290.0L325.0 290.0L325.0 90.0C325.0 88.89543 325.89542 88.0 327.0 88.0L340.0 88.0C341.10458 88.0 342.0 88.89543 342.0 90.0Z" fill-rule="nonzero"></path><path stroke="#000000" stroke-width="2.0" stroke-linecap="butt" stroke-opacity="0.0" clip-path="url(#id_0)" d="M368.0 290.0L351.0 290.0L351.0 101.0C351.0 99.89543 351.89542 99.0 353.0 99.0L366.0 99.0C367.10458 99.0 368.0 99.89543 368.0 101.0Z" fill-rule="nonzero"></path><path fill="#4285f4" clip-path="url(#id_0)" d="M368.0 290.0L351.0 290.0L351.0 101.0C351.0 99.89543 351.89542 99.0 353.0 99.0L366.0 99.0C367.10458 99.0 368.0 99.89543 368.0 101.0Z" fill-rule="nonzero"></path><path stroke="#000000" stroke-width="2.0" stroke-linecap="butt" stroke-opacity="0.0" clip-path="url(#id_0)" d="M393.0 290.0L376.0 290.0L376.0 130.0C376.0 128.89543 376.89542 128.0 378.0 128.0L391.0 128.0C392.10458 128.0 393.0 128.89543 393.0 130.0Z" fill-rule="nonzero"></path><path fill="#4285f4" clip-path="url(#id_0)" d="M393.0 290.0L376.0 290.0L376.0 130.0C376.0 128.89543 376.89542 128.0 378.0 128.0L391.0 128.0C392.10458 128.0 393.0 128.89543 393.0 130.0Z" fill-rule="nonzero"></path><path stroke="#000000" stroke-width="2.0" stroke-linecap="butt" stroke-opacity="0.0" clip-path="url(#id_0)" d="M419.0 290.0L402.0 290.0L402.0 169.0C402.0 167.89543 402.89542 167.0 404.0 167.0L417.0 167.0C418.10458 167.0 419.0 167.89543 419.0 169.0Z" fill-rule="nonzero"></path><path fill="#4285f4" clip-path="url(#id_0)" d="M419.0 290.0L402.0 290.0L402.0 169.0C402.0 167.89543 402.89542 167.0 404.0 167.0L417.0 167.0C418.10458 167.0 419.0 167.89543 419.0 169.0Z" fill-rule="nonzero"></path><path stroke="#000000" stroke-width="2.0" stroke-linecap="butt" stroke-opacity="0.0" clip-path="url(#id_0)" d="M445.0 290.0L428.0 290.0L428.0 209.0C428.0 207.89543 428.89542 207.0 430.0 207.0L443.0 207.0C444.10458 207.0 445.0 207.89543 445.0 209.0Z" fill-rule="nonzero"></path><path fill="#4285f4" clip-path="url(#id_0)" d="M445.0 290.0L428.0 290.0L428.0 209.0C428.0 207.89543 428.89542 207.0 430.0 207.0L443.0 207.0C444.10458 207.0 445.0 207.89543 445.0 209.0Z" fill-rule="nonzero"></path><path stroke="#000000" stroke-width="2.0" stroke-linecap="butt" stroke-opacity="0.0" clip-path="url(#id_0)" d="M470.0 290.0L453.0 290.0L453.0 241.0C453.0 239.89543 453.89542 239.0 455.0 239.0L468.0 239.0C469.10458 239.0 470.0 239.89543 470.0 241.0Z" fill-rule="nonzero"></path><path fill="#4285f4" clip-path="url(#id_0)" d="M470.0 290.0L453.0 290.0L453.0 241.0C453.0 239.89543 453.89542 239.0 455.0 239.0L468.0 239.0C469.10458 239.0 470.0 239.89543 470.0 241.0Z" fill-rule="nonzero"></path><path stroke="#000000" stroke-width="2.0" stroke-linecap="butt" stroke-opacity="0.0" clip-path="url(#id_0)" d="M496.0 290.0L479.0 290.0L479.0 264.0C479.0 262.89542 479.89542 262.0 481.0 262.0L494.0 262.0C495.10458 262.0 496.0 262.89542 496.0 264.0Z" fill-rule="nonzero"></path><path fill="#4285f4" clip-path="url(#id_0)" d="M496.0 290.0L479.0 290.0L479.0 264.0C479.0 262.89542 479.89542 262.0 481.0 262.0L494.0 262.0C495.10458 262.0 496.0 262.89542 496.0 264.0Z" fill-rule="nonzero"></path><path stroke="#000000" stroke-width="2.0" stroke-linecap="butt" stroke-opacity="0.0" clip-path="url(#id_0)" d="M522.0 290.0L505.0 290.0L505.0 278.0C505.0 276.89542 505.89542 276.0 507.0 276.0L520.0 276.0C521.10455 276.0 522.0 276.89542 522.0 278.0Z" fill-rule="nonzero"></path><path fill="#4285f4" clip-path="url(#id_0)" d="M522.0 290.0L505.0 290.0L505.0 278.0C505.0 276.89542 505.89542 276.0 507.0 276.0L520.0 276.0C521.10455 276.0 522.0 276.89542 522.0 278.0Z" fill-rule="nonzero"></path><path stroke="#000000" stroke-width="2.0" stroke-linecap="butt" stroke-opacity="0.0" clip-path="url(#id_0)" d="M547.0 290.0L530.0 290.0L530.0 286.0C530.0 284.89542 530.89545 284.0 532.0 284.0L545.0 284.0C546.10455 284.0 547.0 284.89542 547.0 286.0Z" fill-rule="nonzero"></path><path fill="#4285f4" clip-path="url(#id_0)" d="M547.0 290.0L530.0 290.0L530.0 286.0C530.0 284.89542 530.89545 284.0 532.0 284.0L545.0 284.0C546.10455 284.0 547.0 284.89542 547.0 286.0Z" fill-rule="nonzero"></path><path stroke="#000000" stroke-width="2.0" stroke-linecap="butt" stroke-opacity="0.0" clip-path="url(#id_0)" d="M573.0 290.0L556.0 290.0L556.0 288.5C556.0 287.67157 556.6716 287.0 557.5 287.0L571.5 287.0C572.3284 287.0 573.0 287.67157 573.0 288.5Z" fill-rule="nonzero"></path><path fill="#4285f4" clip-path="url(#id_0)" d="M573.0 290.0L556.0 290.0L556.0 288.5C556.0 287.67157 556.6716 287.0 557.5 287.0L571.5 287.0C572.3284 287.0 573.0 287.67157 573.0 288.5Z" fill-rule="nonzero"></path><path fill="#000000" d="M305.54688 346.6844L306.60938 346.59064Q306.6875 347.2469 306.96875 347.65314Q307.25 348.0594 307.82812 348.325Q308.42188 348.575 309.15625 348.575Q309.79688 348.575 310.29688 348.3875Q310.79688 348.1844 311.03125 347.85626Q311.28125 347.5125 311.28125 347.1219Q311.28125 346.71564 311.04688 346.41876Q310.8125 346.10626 310.28125 345.90314Q309.92188 345.7625 308.73438 345.48126Q307.5625 345.2 307.09375 344.95Q306.46875 344.6219 306.17188 344.15314Q305.875 343.66876 305.875 343.075Q305.875 342.4344 306.23438 341.8719Q306.60938 341.29376 307.3125 341.0125Q308.03125 340.71564 308.89062 340.71564Q309.84375 340.71564 310.57812 341.02814Q311.3125 341.325 311.70312 341.9344Q312.09375 342.52814 312.125 343.27814L311.03125 343.35626Q310.9375 342.54376 310.42188 342.1375Q309.92188 341.71564 308.9375 341.71564Q307.90625 341.71564 307.4375 342.09064Q306.96875 342.46564 306.96875 342.9969Q306.96875 343.46564 307.29688 343.7625Q307.625 344.0594 309.0 344.3719Q310.39062 344.6844 310.90625 344.91876Q311.65625 345.27814 312.01562 345.8094Q312.375 346.325 312.375 347.02814Q312.375 347.71564 311.98438 348.325Q311.59375 348.91876 310.85938 349.2625Q310.125 349.59064 309.20312 349.59064Q308.03125 349.59064 307.23438 349.2625Q306.45312 348.91876 306.0 348.23126Q305.5625 347.54376 305.54688 346.6844ZM312.98438 349.45L316.28125 340.85626L317.5 340.85626L321.01562 349.45L319.73438 349.45L318.71875 346.84064L315.14062 346.84064L314.1875 349.45L312.98438 349.45ZM315.46875 345.91876L318.375 345.91876L317.48438 343.54376Q317.0625 342.46564 316.875 341.7625Q316.70312 342.59064 316.40625 343.40314L315.46875 345.91876ZM324.10938 349.45L324.10938 341.8719L321.28125 341.8719L321.28125 340.85626L328.09375 340.85626L328.09375 341.8719L325.25 341.8719L325.25 349.45L324.10938 349.45ZM331.375 347.59064L332.40625 347.4344Q332.5 348.0594 332.89062 348.3875Q333.29688 348.71564 334.03125 348.71564Q334.75 348.71564 335.09375 348.4344Q335.45312 348.1375 335.45312 347.73126Q335.45312 347.3719 335.14062 347.16876Q334.92188 347.02814 334.0625 346.8094Q332.90625 346.5125 332.45312 346.3094Q332.01562 346.09064 331.78125 345.71564Q331.54688 345.34064 331.54688 344.8719Q331.54688 344.46564 331.73438 344.10626Q331.92188 343.7469 332.25 343.5125Q332.5 343.34064 332.92188 343.21564Q333.34375 343.09064 333.84375 343.09064Q334.5625 343.09064 335.10938 343.3094Q335.67188 343.5125 335.9375 343.8719Q336.20312 344.23126 336.29688 344.825L335.26562 344.96564Q335.20312 344.4969 334.85938 344.23126Q334.53125 343.95 333.90625 343.95Q333.1875 343.95 332.875 344.2Q332.5625 344.4344 332.5625 344.7625Q332.5625 344.96564 332.6875 345.1219Q332.82812 345.29376 333.09375 345.40314Q333.25 345.46564 334.03125 345.66876Q335.15625 345.98126 335.59375 346.16876Q336.03125 346.35626 336.28125 346.71564Q336.53125 347.075 336.53125 347.6219Q336.53125 348.15314 336.21875 348.6219Q335.92188 349.075 335.34375 349.34064Q334.76562 349.59064 334.03125 349.59064Q332.8125 349.59064 332.17188 349.09064Q331.54688 348.575 331.375 347.59064ZM341.85938 347.16876L342.89062 347.3094Q342.71875 348.3719 342.01562 348.98126Q341.3125 349.59064 340.29688 349.59064Q339.01562 349.59064 338.23438 348.7625Q337.46875 347.91876 337.46875 346.35626Q337.46875 345.35626 337.79688 344.60626Q338.14062 343.84064 338.8125 343.46564Q339.5 343.09064 340.3125 343.09064Q341.3125 343.09064 341.95312 343.60626Q342.60938 344.10626 342.79688 345.0594L341.76562 345.21564Q341.625 344.59064 341.25 344.27814Q340.875 343.95 340.34375 343.95Q339.54688 343.95 339.04688 344.52814Q338.54688 345.09064 338.54688 346.325Q338.54688 347.59064 339.03125 348.15314Q339.51562 348.71564 340.28125 348.71564Q340.90625 348.71564 341.3125 348.34064Q341.73438 347.96564 341.85938 347.16876ZM343.40625 346.34064Q343.40625 344.60626 344.35938 343.77814Q345.15625 343.09064 346.3125 343.09064Q347.59375 343.09064 348.40625 343.9344Q349.23438 344.7625 349.23438 346.2469Q349.23438 347.45 348.875 348.1375Q348.51562 348.825 347.8125 349.21564Q347.125 349.59064 346.3125 349.59064Q345.01562 349.59064 344.20312 348.7625Q343.40625 347.91876 343.40625 346.34064ZM344.48438 346.34064Q344.48438 347.52814 345.0 348.1219Q345.53125 348.71564 346.3125 348.71564Q347.10938 348.71564 347.625 348.1219Q348.14062 347.52814 348.14062 346.3094Q348.14062 345.15314 347.60938 344.5594Q347.09375 343.96564 346.3125 343.96564Q345.53125 343.96564 345.0 344.5594Q344.48438 345.1375 344.48438 346.34064ZM350.78125 349.45L350.78125 343.23126L351.73438 343.23126L351.73438 344.16876Q352.09375 343.5125 352.39062 343.3094Q352.70312 343.09064 353.07812 343.09064Q353.60938 343.09064 354.15625 343.41876L353.79688 344.40314Q353.40625 344.16876 353.03125 344.16876Q352.67188 344.16876 352.39062 344.3875Q352.125 344.59064 352.01562 344.96564Q351.82812 345.52814 351.82812 346.1844L351.82812 349.45L350.78125 349.45ZM359.04688 347.45L360.14062 347.575Q359.89062 348.52814 359.1875 349.0594Q358.48438 349.59064 357.40625 349.59064Q356.04688 349.59064 355.23438 348.7469Q354.4375 347.90314 354.4375 346.3875Q354.4375 344.825 355.25 343.96564Q356.0625 343.09064 357.34375 343.09064Q358.59375 343.09064 359.375 343.9344Q360.17188 344.77814 360.17188 346.325Q360.17188 346.41876 360.17188 346.60626L355.53125 346.60626Q355.59375 347.6375 356.10938 348.1844Q356.625 348.71564 357.40625 348.71564Q357.98438 348.71564 358.39062 348.41876Q358.8125 348.10626 359.04688 347.45ZM355.59375 345.7469L359.0625 345.7469Q359.0 344.95 358.67188 344.5594Q358.15625 343.95 357.35938 343.95Q356.625 343.95 356.125 344.4344Q355.64062 344.91876 355.59375 345.7469Z" fill-rule="nonzero"></path><path fill="#000000" d="M29.550013 215.69896L20.956263 215.69896L20.956263 209.90208L21.971888 209.90208L21.971888 214.55833L24.628138 214.55833L24.628138 210.52708L25.643763 210.52708L25.643763 214.55833L29.550013 214.55833L29.550013 215.69896ZM29.550013 208.90208L23.331263 208.90208L23.331263 207.94896L24.268763 207.94896Q23.612513 207.58958 23.409388 207.29271Q23.190638 206.98021 23.190638 206.60521Q23.190638 206.07396 23.518763 205.52708L24.503138 205.88646Q24.268763 206.27708 24.268763 206.65208Q24.268763 207.01146 24.487513 207.29271Q24.690638 207.55833 25.065638 207.66771Q25.628138 207.85521 26.284388 207.85521L29.550013 207.85521L29.550013 208.90208ZM27.550013 200.63646L27.675013 199.54271Q28.628138 199.79271 29.159388 200.49583Q29.690638 201.19896 29.690638 202.27708Q29.690638 203.63646 28.846888 204.44896Q28.003138 205.24583 26.487513 205.24583Q24.925013 205.24583 24.065638 204.43333Q23.190638 203.62083 23.190638 202.33958Q23.190638 201.08958 24.034388 200.30833Q24.878138 199.51146 26.425013 199.51146Q26.518763 199.51146 26.706263 199.51146L26.706263 204.15208Q27.737513 204.08958 28.284388 203.57396Q28.815638 203.05833 28.815638 202.27708Q28.815638 201.69896 28.518763 201.29271Q28.206263 200.87083 27.550013 200.63646ZM25.846888 204.08958L25.846888 200.62083Q25.050013 200.68333 24.659388 201.01146Q24.050013 201.52708 24.050013 202.32396Q24.050013 203.05833 24.534388 203.55833Q25.018763 204.04271 25.846888 204.08958ZM31.940638 193.91771L28.893763 193.91771Q29.237513 194.16771 29.471888 194.62083Q29.690638 195.05833 29.690638 195.55833Q29.690638 196.66771 28.815638 197.46458Q27.925013 198.26146 26.378138 198.26146Q25.440638 198.26146 24.706263 197.93333Q23.956263 197.60521 23.581263 196.99583Q23.190638 196.37083 23.190638 195.63646Q23.190638 194.48021 24.159388 193.82396L23.331263 193.82396L23.331263 192.87083L31.940638 192.87083L31.940638 193.91771ZM26.425013 197.18333Q27.628138 197.18333 28.221888 196.68333Q28.815638 196.16771 28.815638 195.46458Q28.815638 194.79271 28.253138 194.30833Q27.675013 193.82396 26.518763 193.82396Q25.268763 193.82396 24.643763 194.33958Q24.018763 194.83958 24.018763 195.54271Q24.018763 196.21458 24.612513 196.69896Q25.190638 197.18333 26.425013 197.18333ZM29.550013 186.80833L28.628138 186.80833Q29.690638 187.54271 29.690638 188.79271Q29.690638 189.33958 29.487513 189.82396Q29.268763 190.29271 28.956263 190.52708Q28.628138 190.76146 28.159388 190.85521Q27.862513 190.91771 27.175013 190.91771L23.331263 190.91771L23.331263 189.85521L26.784388 189.85521Q27.596888 189.85521 27.893763 189.79271Q28.300013 189.69896 28.550013 189.38646Q28.784388 189.05833 28.784388 188.57396Q28.784388 188.10521 28.550013 187.69896Q28.300013 187.27708 27.878138 187.10521Q27.456263 186.91771 26.659388 186.91771L23.331263 186.91771L23.331263 185.87083L29.550013 185.87083L29.550013 186.80833ZM27.550013 179.63646L27.675013 178.54271Q28.628138 178.79271 29.159388 179.49583Q29.690638 180.19896 29.690638 181.27708Q29.690638 182.63646 28.846888 183.44896Q28.003138 184.24583 26.487513 184.24583Q24.925013 184.24583 24.065638 183.43333Q23.190638 182.62083 23.190638 181.33958Q23.190638 180.08958 24.034388 179.30833Q24.878138 178.51146 26.425013 178.51146Q26.518763 178.51146 26.706263 178.51146L26.706263 183.15208Q27.737513 183.08958 28.284388 182.57396Q28.815638 182.05833 28.815638 181.27708Q28.815638 180.69896 28.518763 180.29271Q28.206263 179.87083 27.550013 179.63646ZM25.846888 183.08958L25.846888 179.62083Q25.050013 179.68333 24.659388 180.01146Q24.050013 180.52708 24.050013 181.32396Q24.050013 182.05833 24.534388 182.55833Q25.018763 183.04271 25.846888 183.08958ZM29.550013 176.88646L23.331263 176.88646L23.331263 175.94896L24.206263 175.94896Q23.190638 175.26146 23.190638 173.96458Q23.190638 173.40208 23.393763 172.93333Q23.596888 172.44896 23.925013 172.21458Q24.253138 171.98021 24.690638 171.88646Q24.987513 171.83958 25.721888 171.83958L29.550013 171.83958L29.550013 172.88646L25.768763 172.88646Q25.112513 172.88646 24.800013 173.01146Q24.487513 173.13646 24.300013 173.44896Q24.096888 173.76146 24.096888 174.18333Q24.096888 174.85521 24.534388 175.35521Q24.956263 175.83958 26.143763 175.83958L29.550013 175.83958L29.550013 176.88646ZM27.268763 165.82396L27.409388 164.79271Q28.471888 164.96458 29.081263 165.66771Q29.690638 166.37083 29.690638 167.38646Q29.690638 168.66771 28.862513 169.44896Q28.018763 170.21458 26.456263 170.21458Q25.456263 170.21458 24.706263 169.88646Q23.940638 169.54271 23.565638 168.87083Q23.190638 168.18333 23.190638 167.37083Q23.190638 166.37083 23.706263 165.73021Q24.206263 165.07396 25.159388 164.88646L25.315638 165.91771Q24.690638 166.05833 24.378138 166.43333Q24.050013 166.80833 24.050013 167.33958Q24.050013 168.13646 24.628138 168.63646Q25.190638 169.13646 26.425013 169.13646Q27.690638 169.13646 28.253138 168.65208Q28.815638 168.16771 28.815638 167.40208Q28.815638 166.77708 28.440638 166.37083Q28.065638 165.94896 27.268763 165.82396ZM31.940638 163.93333L30.956263 164.05833Q31.050013 163.71458 31.050013 163.44896Q31.050013 163.10521 30.925013 162.90208Q30.815638 162.68333 30.612513 162.54271Q30.440638 162.44896 29.815638 162.21458Q29.737513 162.19896 29.565638 162.12083L23.331263 164.49583L23.331263 163.35521L26.925013 162.05833Q27.612513 161.80833 28.378138 161.60521Q27.643763 161.41771 26.956263 161.16771L23.331263 159.83958L23.331263 158.79271L29.659388 161.15208Q30.675013 161.54271 31.065638 161.74583Q31.596888 162.02708 31.831263 162.40208Q32.08126 162.76146 32.08126 163.26146Q32.08126 163.55833 31.940638 163.93333Z" fill-rule="nonzero"></path><path fill="#000000" d="M72.05 289.4669Q72.05 287.93564 72.3625 287.01376Q72.675 286.07626 73.28438 285.57626Q73.90938 285.07626 74.84688 285.07626Q75.53438 285.07626 76.05 285.3575Q76.58125 285.63876 76.925 286.17Q77.26875 286.68564 77.45625 287.43564Q77.64375 288.18564 77.64375 289.4669Q77.64375 290.9825 77.33125 291.9044Q77.03438 292.82626 76.40938 293.3419Q75.8 293.8419 74.84688 293.8419Q73.6125 293.8419 72.89375 292.95126Q72.05 291.88876 72.05 289.4669ZM73.12813 289.4669Q73.12813 291.57626 73.62813 292.2794Q74.12813 292.9825 74.84688 292.9825Q75.58125 292.9825 76.06563 292.2794Q76.56563 291.57626 76.56563 289.4669Q76.56563 287.3419 76.06563 286.6544Q75.58125 285.95126 74.83125 285.95126Q74.1125 285.95126 73.675 286.56064Q73.12813 287.3419 73.12813 289.4669Z" fill-rule="nonzero"></path><path fill="#000000" d="M55.01875 217.77307L53.971874 217.77307L53.971874 211.05432Q53.58125 211.4137 52.95625 211.7887Q52.346874 212.14807 51.8625 212.31995L51.8625 211.30432Q52.7375 210.88245 53.39375 210.30432Q54.065624 209.71057 54.346874 209.14807L55.01875 209.14807L55.01875 217.77307ZM58.05 213.5387Q58.05 212.00745 58.3625 211.08557Q58.675 210.14807 59.284374 209.64807Q59.909374 209.14807 60.846874 209.14807Q61.534374 209.14807 62.05 209.42932Q62.58125 209.71057 62.925 210.24182Q63.26875 210.75745 63.45625 211.50745Q63.64375 212.25745 63.64375 213.5387Q63.64375 215.05432 63.33125 215.9762Q63.034374 216.89807 62.409374 217.4137Q61.8 217.9137 60.846874 217.9137Q59.6125 217.9137 58.89375 217.02307Q58.05 215.96057 58.05 213.5387ZM59.128124 213.5387Q59.128124 215.64807 59.628124 216.3512Q60.128124 217.05432 60.846874 217.05432Q61.58125 217.05432 62.065624 216.3512Q62.565624 215.64807 62.565624 213.5387Q62.565624 211.4137 62.065624 210.7262Q61.58125 210.02307 60.83125 210.02307Q60.1125 210.02307 59.675 210.63245Q59.128124 211.4137 59.128124 213.5387ZM65.05 213.5387Q65.05 212.00745 65.3625 211.08557Q65.675 210.14807 66.28438 209.64807Q66.90938 209.14807 67.84688 209.14807Q68.53438 209.14807 69.05 209.42932Q69.58125 209.71057 69.925 210.24182Q70.26875 210.75745 70.45625 211.50745Q70.64375 212.25745 70.64375 213.5387Q70.64375 215.05432 70.33125 215.9762Q70.03438 216.89807 69.40938 217.4137Q68.8 217.9137 67.84688 217.9137Q66.6125 217.9137 65.89375 217.02307Q65.05 215.96057 65.05 213.5387ZM66.12813 213.5387Q66.12813 215.64807 66.62813 216.3512Q67.12813 217.05432 67.84688 217.05432Q68.58125 217.05432 69.06563 216.3512Q69.56563 215.64807 69.56563 213.5387Q69.56563 211.4137 69.06563 210.7262Q68.58125 210.02307 67.83125 210.02307Q67.1125 210.02307 66.675 210.63245Q66.12813 211.4137 66.12813 213.5387ZM72.05 213.5387Q72.05 212.00745 72.3625 211.08557Q72.675 210.14807 73.28438 209.64807Q73.90938 209.14807 74.84688 209.14807Q75.53438 209.14807 76.05 209.42932Q76.58125 209.71057 76.925 210.24182Q77.26875 210.75745 77.45625 211.50745Q77.64375 212.25745 77.64375 213.5387Q77.64375 215.05432 77.33125 215.9762Q77.03438 216.89807 76.40938 217.4137Q75.8 217.9137 74.84688 217.9137Q73.6125 217.9137 72.89375 217.02307Q72.05 215.96057 72.05 213.5387ZM73.12813 213.5387Q73.12813 215.64807 73.62813 216.3512Q74.12813 217.05432 74.84688 217.05432Q75.58125 217.05432 76.06563 216.3512Q76.56563 215.64807 76.56563 213.5387Q76.56563 211.4137 76.06563 210.7262Q75.58125 210.02307 74.83125 210.02307Q74.1125 210.02307 73.675 210.63245Q73.12813 211.4137 73.12813 213.5387Z" fill-rule="nonzero"></path><path fill="#000000" d="M56.596874 140.82924L56.596874 141.84486L50.909374 141.84486Q50.909374 141.46986 51.034374 141.11049Q51.253124 140.53236 51.721874 139.96986Q52.20625 139.40736 53.1125 138.67299Q54.51875 137.51674 55.003124 136.84486Q55.503124 136.17299 55.503124 135.57924Q55.503124 134.95424 55.05 134.53236Q54.596874 134.09486 53.878124 134.09486Q53.1125 134.09486 52.659374 134.54799Q52.20625 135.00111 52.190624 135.81361L51.1125 135.70424Q51.221874 134.48549 51.940624 133.86049Q52.675 133.21986 53.909374 133.21986Q55.14375 133.21986 55.8625 133.90736Q56.58125 134.59486 56.58125 135.61049Q56.58125 136.12611 56.3625 136.62611Q56.159374 137.11049 55.659374 137.67299Q55.175 138.21986 54.05 139.17299Q53.096874 139.96986 52.815624 140.26674Q52.55 140.54799 52.378124 140.82924L56.596874 140.82924ZM58.05 137.61049Q58.05 136.07924 58.3625 135.15736Q58.675 134.21986 59.284374 133.71986Q59.909374 133.21986 60.846874 133.21986Q61.534374 133.21986 62.05 133.50111Q62.58125 133.78236 62.925 134.31361Q63.26875 134.82924 63.45625 135.57924Q63.64375 136.32924 63.64375 137.61049Q63.64375 139.12611 63.33125 140.04799Q63.034374 140.96986 62.409374 141.48549Q61.8 141.98549 60.846874 141.98549Q59.6125 141.98549 58.89375 141.09486Q58.05 140.03236 58.05 137.61049ZM59.128124 137.61049Q59.128124 139.71986 59.628124 140.42299Q60.128124 141.12611 60.846874 141.12611Q61.58125 141.12611 62.065624 140.42299Q62.565624 139.71986 62.565624 137.61049Q62.565624 135.48549 62.065624 134.79799Q61.58125 134.09486 60.83125 134.09486Q60.1125 134.09486 59.675 134.70424Q59.128124 135.48549 59.128124 137.61049ZM65.05 137.61049Q65.05 136.07924 65.3625 135.15736Q65.675 134.21986 66.28438 133.71986Q66.90938 133.21986 67.84688 133.21986Q68.53438 133.21986 69.05 133.50111Q69.58125 133.78236 69.925 134.31361Q70.26875 134.82924 70.45625 135.57924Q70.64375 136.32924 70.64375 137.61049Q70.64375 139.12611 70.33125 140.04799Q70.03438 140.96986 69.40938 141.48549Q68.8 141.98549 67.84688 141.98549Q66.6125 141.98549 65.89375 141.09486Q65.05 140.03236 65.05 137.61049ZM66.12813 137.61049Q66.12813 139.71986 66.62813 140.42299Q67.12813 141.12611 67.84688 141.12611Q68.58125 141.12611 69.06563 140.42299Q69.56563 139.71986 69.56563 137.61049Q69.56563 135.48549 69.06563 134.79799Q68.58125 134.09486 67.83125 134.09486Q67.1125 134.09486 66.675 134.70424Q66.12813 135.48549 66.12813 137.61049ZM72.05 137.61049Q72.05 136.07924 72.3625 135.15736Q72.675 134.21986 73.28438 133.71986Q73.90938 133.21986 74.84688 133.21986Q75.53438 133.21986 76.05 133.50111Q76.58125 133.78236 76.925 134.31361Q77.26875 134.82924 77.45625 135.57924Q77.64375 136.32924 77.64375 137.61049Q77.64375 139.12611 77.33125 140.04799Q77.03438 140.96986 76.40938 141.48549Q75.8 141.98549 74.84688 141.98549Q73.6125 141.98549 72.89375 141.09486Q72.05 140.03236 72.05 137.61049ZM73.12813 137.61049Q73.12813 139.71986 73.62813 140.42299Q74.12813 141.12611 74.84688 141.12611Q75.58125 141.12611 76.06563 140.42299Q76.56563 139.71986 76.56563 137.61049Q76.56563 135.48549 76.06563 134.79799Q75.58125 134.09486 74.83125 134.09486Q74.1125 134.09486 73.675 134.70424Q73.12813 135.48549 73.12813 137.61049Z" fill-rule="nonzero"></path><path fill="#000000" d="M51.05 63.65104L52.1125 63.510414Q52.284374 64.40104 52.721874 64.80729Q53.159374 65.197914 53.784374 65.197914Q54.534374 65.197914 55.05 64.68229Q55.565624 64.166664 55.565624 63.40104Q55.565624 62.68229 55.08125 62.21354Q54.6125 61.729164 53.878124 61.729164Q53.58125 61.729164 53.128124 61.854164L53.253124 60.916664Q53.3625 60.93229 53.425 60.93229Q54.096874 60.93229 54.628124 60.58854Q55.175 60.229164 55.175 59.49479Q55.175 58.916664 54.784374 58.541664Q54.39375 58.15104 53.76875 58.15104Q53.159374 58.15104 52.7375 58.541664Q52.33125 58.93229 52.221874 59.697914L51.159374 59.510414Q51.346874 58.46354 52.034374 57.885414Q52.721874 57.291664 53.7375 57.291664Q54.440624 57.291664 55.034374 57.604164Q55.628124 57.90104 55.940624 58.416664Q56.253124 58.93229 56.253124 59.52604Q56.253124 60.072914 55.95625 60.541664Q55.659374 60.99479 55.08125 61.260414Q55.83125 61.43229 56.253124 61.99479Q56.675 62.541664 56.675 63.385414Q56.675 64.510414 55.846874 65.291664Q55.034374 66.072914 53.784374 66.072914Q52.659374 66.072914 51.909374 65.40104Q51.159374 64.71354 51.05 63.65104ZM58.05 61.68229Q58.05 60.15104 58.3625 59.229164Q58.675 58.291664 59.284374 57.791664Q59.909374 57.291664 60.846874 57.291664Q61.534374 57.291664 62.05 57.572914Q62.58125 57.854164 62.925 58.385414Q63.26875 58.90104 63.45625 59.65104Q63.64375 60.40104 63.64375 61.68229Q63.64375 63.197914 63.33125 64.11979Q63.034374 65.041664 62.409374 65.55729Q61.8 66.05729 60.846874 66.05729Q59.6125 66.05729 58.89375 65.166664Q58.05 64.104164 58.05 61.68229ZM59.128124 61.68229Q59.128124 63.791664 59.628124 64.49479Q60.128124 65.197914 60.846874 65.197914Q61.58125 65.197914 62.065624 64.49479Q62.565624 63.791664 62.565624 61.68229Q62.565624 59.55729 62.065624 58.86979Q61.58125 58.166664 60.83125 58.166664Q60.1125 58.166664 59.675 58.77604Q59.128124 59.55729 59.128124 61.68229ZM65.05 61.68229Q65.05 60.15104 65.3625 59.229164Q65.675 58.291664 66.28438 57.791664Q66.90938 57.291664 67.84688 57.291664Q68.53438 57.291664 69.05 57.572914Q69.58125 57.854164 69.925 58.385414Q70.26875 58.90104 70.45625 59.65104Q70.64375 60.40104 70.64375 61.68229Q70.64375 63.197914 70.33125 64.11979Q70.03438 65.041664 69.40938 65.55729Q68.8 66.05729 67.84688 66.05729Q66.6125 66.05729 65.89375 65.166664Q65.05 64.104164 65.05 61.68229ZM66.12813 61.68229Q66.12813 63.791664 66.62813 64.49479Q67.12813 65.197914 67.84688 65.197914Q68.58125 65.197914 69.06563 64.49479Q69.56563 63.791664 69.56563 61.68229Q69.56563 59.55729 69.06563 58.86979Q68.58125 58.166664 67.83125 58.166664Q67.1125 58.166664 66.675 58.77604Q66.12813 59.55729 66.12813 61.68229ZM72.05 61.68229Q72.05 60.15104 72.3625 59.229164Q72.675 58.291664 73.28438 57.791664Q73.90938 57.291664 74.84688 57.291664Q75.53438 57.291664 76.05 57.572914Q76.58125 57.854164 76.925 58.385414Q77.26875 58.90104 77.45625 59.65104Q77.64375 60.40104 77.64375 61.68229Q77.64375 63.197914 77.33125 64.11979Q77.03438 65.041664 76.40938 65.55729Q75.8 66.05729 74.84688 66.05729Q73.6125 66.05729 72.89375 65.166664Q72.05 64.104164 72.05 61.68229ZM73.12813 61.68229Q73.12813 63.791664 73.62813 64.49479Q74.12813 65.197914 74.84688 65.197914Q75.58125 65.197914 76.06563 64.49479Q76.56563 63.791664 76.56563 61.68229Q76.56563 59.55729 76.06563 58.86979Q75.58125 58.166664 74.83125 58.166664Q74.1125 58.166664 73.675 58.77604Q73.12813 59.55729 73.12813 61.68229Z" fill-rule="nonzero"></path><path fill="#000000" d="M89.9292 312.64975L89.211044 311.93158L93.144325 307.9983L93.729904 308.58386Q93.77409 309.7771 94.22709 311.37915Q94.68008 312.9591 95.453476 314.3512Q95.9838 315.34558 96.83454 316.3068L96.06114 317.0802Q95.354034 316.35098 94.60274 315.06937Q93.86249 313.77667 93.42054 312.34036Q92.98965 310.893 92.91231 309.66663L89.9292 312.64975ZM97.1218 310.03122Q96.03905 308.9485 95.608154 308.07562Q95.166214 307.19174 95.24355 306.40732Q95.33194 305.61182 95.99485 304.9489Q96.48099 304.46277 97.044464 304.29703Q97.61899 304.12027 98.23771 304.25284Q98.845375 304.3744 99.50829 304.77213Q100.1712 305.16986 101.07719 306.07584Q102.148895 307.14755 102.57979 308.0204Q103.02173 308.88217 102.94439 309.68872Q102.86705 310.47318 102.193085 311.14713Q101.32025 312.01996 100.18225 311.89844Q98.83433 311.74374 97.1218 310.03122ZM97.884155 309.2689Q99.37571 310.76044 100.22645 310.90405Q101.07719 311.0477 101.58542 310.53946Q102.1047 310.02017 101.95002 309.18048Q101.80639 308.32974 100.314835 306.8382Q98.81223 305.3356 97.97254 305.203Q97.13285 305.04834 96.60252 305.57867Q96.09429 306.0869 96.21582 306.82715Q96.38155 307.76627 97.884155 309.2689ZM102.07155 305.08148Q100.98879 303.99872 100.5579 303.1259Q100.11596 302.242 100.1933 301.45755Q100.281685 300.66208 100.9446 299.99915Q101.43074 299.51303 101.99421 299.3473Q102.56873 299.1705 103.187454 299.3031Q103.79513 299.42462 104.45804 299.8224Q105.12095 300.22012 106.02693 301.1261Q107.09864 302.1978 107.52953 303.07065Q107.97147 303.93243 107.894135 304.73898Q107.816795 305.52344 107.14283 306.1974Q106.27 307.07022 105.131996 306.9487Q103.78407 306.794 102.07155 305.08148ZM102.8339 304.31912Q104.325455 305.8107 105.17619 305.9543Q106.02693 306.09796 106.535164 305.58972Q107.05444 305.07043 106.899765 304.23074Q106.756134 303.38 105.26458 301.88846Q103.76198 300.38586 102.92229 300.25327Q102.0826 300.0986 101.55227 300.6289Q101.04404 301.13715 101.16557 301.8774Q101.3313 302.81653 102.8339 304.31912Z" fill-rule="nonzero"></path><path fill="#000000" d="M115.60879 312.64972L114.89063 311.93158L118.82391 307.9983L119.40949 308.58386Q119.45368 309.7771 119.90668 311.37915Q120.359665 312.9591 121.133064 314.3512Q121.66339 315.34558 122.51413 316.3068L121.74073 317.0802Q121.03362 316.35098 120.282326 315.06937Q119.54207 313.77667 119.10013 312.34036Q118.669235 310.893 118.591896 309.66663L115.60879 312.64972ZM124.20456 311.4344L124.922714 310.58365Q125.585625 311.0698 126.18224 311.0477Q126.78992 311.01456 127.242905 310.56155Q127.77324 310.03122 127.74009 309.2468Q127.70695 308.46234 127.04404 307.7994Q126.40322 307.1586 125.67401 307.1586Q124.94481 307.1365 124.35924 307.72208Q124.005684 308.07562 123.8731 308.53967Q123.751564 308.99268 123.83996 309.4125L123.05551 310.02017L120.52539 306.3189L123.5527 303.29163L124.2598 303.99872L121.829124 306.4294L123.1439 308.385Q123.29858 307.4569 123.895195 306.8603Q124.6907 306.0648 125.7845 306.07584Q126.88935 306.07584 127.76219 306.9487Q128.57979 307.76627 128.71236 308.84903Q128.85599 310.16382 127.85058 311.16922Q127.021935 311.99786 126.027565 312.06415Q125.04425 312.11942 124.20456 311.4344ZM127.75114 305.08148Q126.66838 303.99872 126.23749 303.1259Q125.79555 302.242 125.87289 301.45755Q125.96127 300.66208 126.62419 299.99915Q127.11032 299.513 127.6738 299.3473Q128.24832 299.1705 128.86705 299.3031Q129.47472 299.42462 130.13762 299.8224Q130.80054 300.22012 131.70651 301.1261Q132.77823 302.1978 133.20912 303.07065Q133.65106 303.93243 133.57372 304.73898Q133.49638 305.52344 132.82242 306.1974Q131.94958 307.07022 130.81158 306.9487Q129.46367 306.794 127.75114 305.08148ZM128.51349 304.31912Q130.00504 305.8107 130.85577 305.9543Q131.70651 306.09796 132.21475 305.58972Q132.73404 305.07043 132.57936 304.23074Q132.43573 303.38 130.94417 301.88846Q129.44157 300.38586 128.60188 300.25327Q127.76219 300.0986 127.23186 300.6289Q126.723625 301.13715 126.84516 301.8774Q127.01089 302.81653 128.51349 304.31912Z" fill-rule="nonzero"></path><path fill="#000000" d="M144.38196 313.53363Q143.74115 313.8209 143.19977 313.74353Q142.65839 313.6441 142.2275 313.21323Q141.56459 312.5503 141.58669 311.62222Q141.61983 310.6831 142.40428 309.89865Q143.19977 309.10315 144.14995 309.08105Q145.10013 309.05896 145.76303 309.72186Q146.18288 310.14172 146.27127 310.67206Q146.35965 311.2024 146.08344 311.83215Q146.8237 311.44543 147.51974 311.567Q148.2158 311.6885 148.77928 312.25198Q149.55269 313.0254 149.5306 314.10815Q149.51953 315.17984 148.61356 316.08585Q147.71863 316.98077 146.63586 317.00287Q145.55312 317.02496 144.75761 316.22946Q144.161 315.63284 144.06155 314.9368Q143.97318 314.22968 144.38196 313.53363ZM142.9567 312.41772Q143.3876 312.8486 143.94002 312.8486Q144.5035 312.83755 144.94543 312.39563Q145.37633 311.96472 145.38739 311.42334Q145.38739 310.8709 144.98964 310.47318Q144.58084 310.0644 144.01736 310.07544Q143.44284 310.07544 143.023 310.49527Q142.5921 310.92618 142.58105 311.48965Q142.58105 312.04205 142.9567 312.41772ZM145.53102 315.45605Q145.85143 315.7765 146.29337 315.93115Q146.74635 316.0748 147.21039 315.9422Q147.67444 315.80963 148.01694 315.4671Q148.54727 314.9368 148.54727 314.25177Q148.55832 313.55573 148.02798 313.0254Q147.4866 312.484 146.7795 312.484Q146.07239 312.484 145.53102 313.0254Q145.00069 313.55573 145.01173 314.25177Q145.01173 314.9368 145.53102 315.45605ZM148.48097 310.03122Q147.39822 308.9485 146.96733 308.07565Q146.52538 307.19174 146.60272 306.40732Q146.69112 305.61182 147.35402 304.9489Q147.84016 304.46277 148.40364 304.29703Q148.97816 304.12027 149.59688 304.25284Q150.20454 304.3744 150.86746 304.77213Q151.53038 305.16986 152.43636 306.07587Q153.50806 307.14755 153.93895 308.0204Q154.38089 308.88217 154.30356 309.68872Q154.22621 310.47318 153.55226 311.14713Q152.67943 312.01996 151.54143 311.89844Q150.1935 311.74374 148.48097 310.03122ZM149.24333 309.2689Q150.73488 310.76044 151.58562 310.90405Q152.43636 311.0477 152.94458 310.53946Q153.46387 310.02017 153.30919 309.18048Q153.16556 308.32974 151.67401 306.8382Q150.1714 305.3356 149.33171 305.20303Q148.49202 305.04834 147.9617 305.57867Q147.45346 306.0869 147.575 306.82715Q147.74072 307.7663 149.24333 309.2689ZM153.43073 305.08148Q152.34796 303.99872 151.91707 303.1259Q151.47513 302.242 151.55247 301.45755Q151.64085 300.66208 152.30377 299.99915Q152.7899 299.51303 153.35338 299.3473Q153.9279 299.1705 154.54663 299.3031Q155.1543 299.42462 155.81721 299.8224Q156.48012 300.22012 157.38611 301.1261Q158.45781 302.1978 158.8887 303.07065Q159.33064 303.93243 159.25331 304.73898Q159.17596 305.52344 158.502 306.1974Q157.62917 307.07022 156.49117 306.9487Q155.14325 306.794 153.43073 305.08148ZM154.19307 304.31912Q155.68463 305.8107 156.53537 305.9543Q157.38611 306.09796 157.89433 305.58972Q158.41362 305.07043 158.25894 304.23074Q158.11531 303.38 156.62375 301.88846Q155.12115 300.38586 154.28146 300.25327Q153.44177 300.0986 152.91144 300.62894Q152.40321 301.13715 152.52473 301.8774Q152.69048 302.81653 154.19307 304.31912Z" fill-rule="nonzero"></path><path fill="#000000" d="M170.06155 313.5336Q169.42075 313.82086 168.87936 313.74353Q168.33798 313.6441 167.90709 313.2132Q167.24419 312.5503 167.26628 311.62222Q167.29942 310.68307 168.08386 309.89865Q168.87936 309.10315 169.82954 309.08105Q170.77971 309.05896 171.44263 309.72186Q171.86247 310.14172 171.95087 310.67203Q172.03925 311.20236 171.76303 311.83215Q172.50328 311.44543 173.19934 311.567Q173.8954 311.6885 174.45888 312.25198Q175.23227 313.0254 175.21017 314.10812Q175.19913 315.17984 174.29315 316.08582Q173.39822 316.98077 172.31546 317.00287Q171.2327 317.02496 170.43721 316.22946Q169.84059 315.63284 169.74115 314.93677Q169.65276 314.22968 170.06155 313.5336ZM168.63629 312.41772Q169.06718 312.8486 169.61961 312.8486Q170.18309 312.83755 170.62503 312.3956Q171.05592 311.96472 171.06697 311.42334Q171.06697 310.8709 170.66924 310.47318Q170.26044 310.06436 169.69696 310.0754Q169.12244 310.0754 168.70259 310.49527Q168.2717 310.92615 168.26065 311.48962Q168.26065 312.04205 168.63629 312.41772ZM171.2106 315.45605Q171.53102 315.77646 171.97296 315.93115Q172.42595 316.07477 172.88998 315.9422Q173.35402 315.8096 173.69653 315.4671Q174.22685 314.93677 174.22685 314.25177Q174.23792 313.55573 173.70758 313.0254Q173.1662 312.484 172.45909 312.484Q171.75198 312.484 171.2106 313.0254Q170.68028 313.55573 170.69133 314.25177Q170.69133 314.93677 171.2106 315.45605ZM175.56374 311.4344L176.28189 310.58365Q176.9448 311.0698 177.54143 311.0477Q178.1491 311.01456 178.60208 310.56155Q179.13242 310.03122 179.09927 309.24677Q179.06612 308.46234 178.40321 307.7994Q177.76239 307.1586 177.03319 307.1586Q176.30399 307.1365 175.71841 307.72208Q175.36485 308.07562 175.23227 308.53967Q175.11075 308.99268 175.19913 309.4125L174.41469 310.02017L171.88457 306.3189L174.91187 303.29163L175.61897 303.99872L173.1883 306.4294L174.50307 308.38498Q174.65775 307.4569 175.25438 306.8603Q176.04987 306.0648 177.14368 306.07584Q178.24854 306.07584 179.12137 306.94867Q179.93895 307.76627 180.07153 308.84903Q180.21516 310.16382 179.20975 311.16922Q178.38112 311.99786 177.38675 312.06415Q176.40343 312.11942 175.56374 311.4344ZM179.11032 305.08148Q178.02756 303.99872 177.59666 303.1259Q177.15472 302.242 177.23206 301.45755Q177.32045 300.66205 177.98337 299.99915Q178.4695 299.513 179.03297 299.3473Q179.6075 299.1705 180.22621 299.3031Q180.8339 299.42462 181.4968 299.82236Q182.15971 300.22012 183.06569 301.1261Q184.1374 302.1978 184.5683 303.07065Q185.01024 303.93243 184.93289 304.73898Q184.85556 305.5234 184.1816 306.1974Q183.30876 307.07022 182.17076 306.94867Q180.82285 306.794 179.11032 305.08148ZM179.87267 304.31912Q181.36421 305.81067 182.21495 305.9543Q183.06569 306.09793 183.57393 305.58972Q184.09322 305.07043 183.93852 304.23074Q183.79489 303.38 182.30334 301.88846Q180.80074 300.38583 179.96106 300.25327Q179.12137 300.09857 178.59103 300.6289Q178.0828 301.13715 178.20433 301.8774Q178.37006 302.81653 179.87267 304.31912Z" fill-rule="nonzero"></path><path fill="#000000" d="M196.59187 316.4615L197.24374 315.67703Q197.84036 316.0969 198.3265 316.0748Q198.81264 316.03058 199.21039 315.63284Q199.55289 315.29034 199.65233 314.88153Q199.75175 314.45065 199.66338 314.0308Q199.56393 313.5999 199.23248 313.0475Q198.88997 312.484 198.42593 312.01996Q198.3707 311.96472 198.27126 311.8653Q198.40384 312.43982 198.24916 313.05853Q198.08344 313.6662 197.63045 314.1192Q196.86809 314.88153 195.80743 314.85944Q194.73572 314.8263 193.84079 313.93137Q192.91272 313.0033 192.89061 311.89844Q192.87956 310.78253 193.69716 309.96494Q194.28273 309.37936 195.08928 309.21362Q195.90688 309.03687 196.75761 309.37936Q197.59729 309.71082 198.7132 310.82672Q199.87329 311.98682 200.31523 312.937Q200.75719 313.86508 200.61356 314.7379Q200.46992 315.58865 199.807 316.25156Q199.08885 316.96973 198.24916 317.036Q197.39842 317.09125 196.59187 316.4615ZM196.95648 310.7273Q196.31566 310.0865 195.5975 310.0533Q194.8904 310.00912 194.40427 310.49527Q193.90709 310.99246 193.94023 311.7769Q193.97337 312.53925 194.62524 313.1911Q195.19977 313.76562 195.91792 313.77667Q196.63608 313.78775 197.1443 313.2795Q197.66359 312.76022 197.63045 312.06415Q197.59729 311.3681 196.95648 310.7273ZM199.84015 310.03122Q198.7574 308.9485 198.3265 308.07565Q197.88455 307.19174 197.9619 306.40732Q198.0503 305.61182 198.7132 304.9489Q199.19934 304.46277 199.76282 304.29703Q200.33734 304.12027 200.95605 304.25284Q201.56372 304.3744 202.22664 304.77213Q202.88954 305.16986 203.79553 306.07587Q204.86723 307.14755 205.29813 308.0204Q205.74007 308.88217 205.66273 309.68872Q205.58539 310.47318 204.91144 311.14713Q204.03859 312.01996 202.9006 311.89844Q201.55267 311.74374 199.84015 310.03122ZM200.6025 309.2689Q202.09406 310.76044 202.9448 310.90405Q203.79553 311.0477 204.30376 310.53946Q204.82304 310.02017 204.66837 309.18048Q204.52473 308.32974 203.03317 306.8382Q201.53058 305.3356 200.69089 305.203Q199.8512 305.04834 199.32086 305.57867Q198.81264 306.0869 198.93417 306.82715Q199.0999 307.76627 200.6025 309.2689ZM204.7899 305.08148Q203.70714 303.99872 203.27625 303.1259Q202.8343 302.242 202.91165 301.45755Q203.00003 300.66208 203.66295 299.99915Q204.14908 299.51303 204.71255 299.3473Q205.28708 299.1705 205.9058 299.3031Q206.51347 299.42462 207.17638 299.8224Q207.8393 300.22012 208.74527 301.1261Q209.81699 302.1978 210.24788 303.07065Q210.68982 303.93243 210.61249 304.73898Q210.53514 305.52344 209.86118 306.1974Q208.98834 307.07022 207.85034 306.9487Q206.50243 306.794 204.7899 305.08148ZM205.55225 304.31912Q207.04381 305.8107 207.89453 305.9543Q208.74527 306.09796 209.25351 305.58972Q209.7728 305.07043 209.61812 304.23074Q209.47449 303.38 207.98293 301.88846Q206.48033 300.38586 205.64064 300.25327Q204.80095 300.0986 204.27061 300.6289Q203.76239 301.13715 203.88391 301.8774Q204.04965 302.81653 205.55225 304.31912Z" fill-rule="nonzero"></path><path fill="#000000" d="M222.27145 316.4615L222.92332 315.67703Q223.51994 316.0969 224.00609 316.0748Q224.49222 316.03058 224.88997 315.63284Q225.23247 315.29034 225.33191 314.88153Q225.43135 314.45065 225.34296 314.0308Q225.24352 313.5999 224.91206 313.0475Q224.56956 312.484 224.10551 312.01996Q224.05028 311.96472 223.95084 311.8653Q224.08342 312.43982 223.92874 313.05853Q223.76302 313.6662 223.31003 314.1192Q222.54767 314.88153 221.48701 314.85944Q220.4153 314.8263 219.52037 313.93137Q218.5923 313.0033 218.5702 311.89844Q218.55914 310.78253 219.37674 309.96494Q219.96231 309.37936 220.76886 309.21365Q221.58646 309.03687 222.4372 309.37936Q223.27689 309.71082 224.39278 310.82672Q225.55287 311.98682 225.99483 312.937Q226.43677 313.86508 226.29314 314.7379Q226.1495 315.58865 225.48659 316.25156Q224.76843 316.96973 223.92874 317.036Q223.078 317.09125 222.27145 316.4615ZM222.63606 310.7273Q221.99525 310.0865 221.2771 310.05334Q220.56999 310.00912 220.08385 310.49527Q219.58667 310.99246 219.61981 311.77692Q219.65295 312.53925 220.30482 313.19113Q220.87935 313.76566 221.5975 313.7767Q222.31566 313.78775 222.82388 313.2795Q223.34317 312.76022 223.31003 312.06418Q223.27689 311.3681 222.63606 310.7273ZM226.9229 311.4344L227.64105 310.58365Q228.30397 311.0698 228.90059 311.0477Q229.50826 311.01456 229.96124 310.56155Q230.49158 310.03122 230.45844 309.2468Q230.4253 308.46234 229.76237 307.79944Q229.12155 307.1586 228.39235 307.1586Q227.66315 307.1365 227.07758 307.72208Q226.72403 308.07565 226.59145 308.53967Q226.46991 308.99268 226.55829 309.4125L225.77385 310.02017L223.24373 306.3189L226.27103 303.29163L226.97813 303.99872L224.54745 306.4294L225.86224 308.385Q226.01692 307.4569 226.61354 306.8603Q227.40903 306.06482 228.50284 306.07587Q229.6077 306.07587 230.48053 306.9487Q231.29813 307.7663 231.43071 308.84903Q231.57434 310.16382 230.56892 311.16922Q229.74028 311.99786 228.74591 312.06418Q227.76259 312.11942 226.9229 311.4344ZM230.46948 305.08148Q229.38672 303.99872 228.95583 303.1259Q228.51389 302.242 228.59123 301.45755Q228.67961 300.66208 229.34253 299.99915Q229.82866 299.51303 230.39214 299.3473Q230.96666 299.1705 231.58539 299.3031Q232.19305 299.42462 232.85597 299.8224Q233.51888 300.22012 234.42487 301.1261Q235.49657 302.1978 235.92746 303.07065Q236.3694 303.93243 236.29207 304.73898Q236.21472 305.52344 235.54076 306.1974Q234.66792 307.07022 233.52992 306.9487Q232.182 306.794 230.46948 305.08148ZM231.23183 304.31912Q232.72339 305.8107 233.57413 305.9543Q234.42487 306.09796 234.93309 305.58972Q235.45238 305.07043 235.2977 304.23074Q235.15407 303.38 233.6625 301.88846Q232.15991 300.38586 231.32022 300.25327Q230.48053 300.0986 229.9502 300.62894Q229.44197 301.13715 229.5635 301.8774Q229.72923 302.81653 231.23183 304.31912Z" fill-rule="nonzero"></path><path fill="#000000" d="M247.10031 320.11856L246.36006 320.8588L241.60919 316.10794Q241.5871 316.63824 241.41032 317.34537Q241.23354 318.03036 241.01257 318.49442L240.29442 317.77625Q240.61482 316.85922 240.67006 315.9864Q240.72531 315.09146 240.52643 314.49484L241.00153 314.01974L247.10031 320.11856ZM246.24957 314.981Q245.16682 313.89822 244.73593 313.0254Q244.29399 312.1415 244.37132 311.35706Q244.45972 310.56155 245.12262 309.89865Q245.60876 309.4125 246.17224 309.2468Q246.74677 309.07 247.36548 309.20258Q247.97314 309.32413 248.63606 309.72186Q249.29898 310.11963 250.20496 311.0256Q251.27667 312.09732 251.70757 312.97015Q252.1495 313.83194 252.07216 314.63846Q251.99483 315.4229 251.32086 316.0969Q250.44803 316.96973 249.31003 316.84818Q247.9621 316.6935 246.24957 314.981ZM247.01193 314.21863Q248.50348 315.71017 249.35422 315.85382Q250.20496 315.99744 250.7132 315.4892Q251.23247 314.96994 251.07779 314.13025Q250.93416 313.2795 249.44261 311.78793Q247.94 310.28534 247.10031 310.15277Q246.26062 309.99808 245.7303 310.5284Q245.22206 311.03665 245.3436 311.7769Q245.50932 312.71603 247.01193 314.21863ZM251.19933 310.03122Q250.11656 308.94846 249.68567 308.07562Q249.24373 307.19174 249.32108 306.40732Q249.40947 305.61182 250.07237 304.94888Q250.55852 304.46277 251.12198 304.29703Q251.69652 304.12027 252.31523 304.25284Q252.9229 304.37436 253.58582 304.77213Q254.24872 305.16986 255.15471 306.07584Q256.2264 307.14755 256.65732 308.0204Q257.09924 308.88217 257.0219 309.68872Q256.94458 310.47318 256.2706 311.14713Q255.39777 312.01996 254.25977 311.89844Q252.91185 311.74374 251.19933 310.03122ZM251.96167 309.2689Q253.45323 310.76044 254.30397 310.90405Q255.15471 311.0477 255.66293 310.53946Q256.18222 310.02017 256.02753 309.18048Q255.88391 308.32974 254.39235 306.8382Q252.88976 305.3356 252.05006 305.203Q251.21037 305.04834 250.68004 305.57867Q250.17181 306.08688 250.29335 306.82715Q250.45908 307.76627 251.96167 309.2689ZM256.14908 305.08148Q255.06631 303.99872 254.63542 303.1259Q254.19348 302.242 254.27083 301.45755Q254.3592 300.66205 255.02213 299.99915Q255.50826 299.513 256.07175 299.3473Q256.64627 299.1705 257.26498 299.3031Q257.87265 299.42462 258.53555 299.8224Q259.1985 300.22012 260.10446 301.1261Q261.17615 302.1978 261.60706 303.07065Q262.04898 303.93243 261.97165 304.73898Q261.89432 305.5234 261.22037 306.1974Q260.34753 307.07022 259.20953 306.94867Q257.8616 306.794 256.14908 305.08148ZM256.91144 304.31912Q258.40298 305.81067 259.25372 305.9543Q260.10446 306.09796 260.61267 305.58972Q261.13196 305.07043 260.9773 304.23074Q260.83365 303.38 259.3421 301.88846Q257.8395 300.38586 256.99982 300.25327Q256.16013 300.0986 255.62979 300.6289Q255.12155 301.13715 255.24309 301.8774Q255.40883 302.81653 256.91144 304.31912Z" fill-rule="nonzero"></path><path fill="#000000" d="M272.7799 320.11853L272.03964 320.8588L267.2888 316.1079Q267.2667 316.63824 267.0899 317.34537Q266.91315 318.03036 266.69217 318.49442L265.974 317.77625Q266.2944 316.85922 266.34967 315.9864Q266.4049 315.09146 266.20602 314.49484L266.68112 314.01974L272.7799 320.11853ZM271.92917 314.98096Q270.8464 313.89822 270.41553 313.0254Q269.97357 312.14148 270.05093 311.35706Q270.1393 310.56155 270.80222 309.89865Q271.28836 309.4125 271.85184 309.24677Q272.42636 309.07 273.04507 309.20258Q273.65274 309.32413 274.31564 309.72186Q274.97858 310.1196 275.88455 311.0256Q276.95627 312.0973 277.38715 312.97012Q277.8291 313.8319 277.75174 314.63846Q277.6744 315.4229 277.00046 316.09686Q276.12762 316.9697 274.98962 316.84818Q273.6417 316.69348 271.92917 314.98096ZM272.69153 314.21863Q274.18307 315.71017 275.0338 315.8538Q275.88455 315.99744 276.3928 315.4892Q276.91208 314.9699 276.7574 314.13022Q276.61374 313.27948 275.1222 311.78793Q273.6196 310.28534 272.7799 310.15274Q271.94022 309.99808 271.40988 310.5284Q270.90167 311.03665 271.0232 311.7769Q271.18893 312.716 272.69153 314.21863ZM278.28207 311.4344L279.00024 310.58365Q279.66315 311.0698 280.25977 311.0477Q280.86743 311.01453 281.32043 310.56155Q281.85077 310.03122 281.81763 309.24677Q281.7845 308.46234 281.12155 307.7994Q280.48074 307.1586 279.75153 307.1586Q279.02234 307.1365 278.43677 307.72208Q278.08322 308.07562 277.95062 308.53967Q277.8291 308.99265 277.91748 309.4125L277.13303 310.02017L274.6029 306.3189L277.63022 303.2916L278.33734 303.99872L275.90665 306.42938L277.22144 308.38498Q277.3761 307.4569 277.97272 306.8603Q278.76822 306.0648 279.86203 306.07584Q280.9669 306.07584 281.83972 306.94867Q282.65732 307.76627 282.7899 308.84903Q282.93353 310.16382 281.9281 311.16922Q281.09946 311.99786 280.1051 312.06415Q279.12177 312.1194 278.28207 311.4344ZM281.82867 305.08148Q280.7459 303.99872 280.315 303.1259Q279.87308 302.242 279.9504 301.45755Q280.0388 300.66205 280.70172 299.99915Q281.18787 299.513 281.7513 299.3473Q282.32584 299.1705 282.94458 299.3031Q283.55225 299.42462 284.21515 299.82236Q284.87805 300.22012 285.78406 301.1261Q286.85574 302.1978 287.28665 303.07065Q287.72858 303.93243 287.65125 304.73898Q287.5739 305.5234 286.89996 306.1974Q286.0271 307.07022 284.8891 306.94867Q283.5412 306.794 281.82867 305.08148ZM282.591 304.31912Q284.08258 305.81067 284.93332 305.9543Q285.78406 306.09793 286.29227 305.58972Q286.81155 305.07043 286.6569 304.23074Q286.51324 303.38 285.0217 301.88846Q283.5191 300.38583 282.6794 300.25327Q281.83972 300.09857 281.3094 300.6289Q280.80115 301.13715 280.9227 301.8774Q281.0884 302.81653 282.591 304.31912Z" fill-rule="nonzero"></path><path fill="#000000" d="M298.45947 320.11856L297.71924 320.8588L292.96835 316.10794Q292.94626 316.63828 292.76947 317.34537Q292.5927 318.0304 292.37173 318.49442L291.65356 317.77628Q291.974 316.85922 292.02924 315.9864Q292.08447 315.09146 291.8856 314.49484L292.3607 314.01978L298.45947 320.11856ZM303.40924 315.16882L302.66898 315.90906L297.9181 311.15817Q297.896 311.6885 297.71924 312.39563Q297.54245 313.08063 297.32147 313.54468L296.60333 312.8265Q296.92374 311.9095 296.97897 311.03665Q297.0342 310.14172 296.83536 309.5451L297.31042 309.07L303.40924 315.16882ZM302.5585 310.03125Q301.47574 308.9485 301.04483 308.07565Q300.6029 307.19177 300.68024 306.40732Q300.76862 305.61182 301.43155 304.9489Q301.91766 304.46277 302.48114 304.29703Q303.05566 304.12027 303.6744 304.25284Q304.28207 304.3744 304.94498 304.77213Q305.60788 305.1699 306.51385 306.07587Q307.58557 307.14755 308.01648 308.02042Q308.4584 308.8822 308.38107 309.68872Q308.30374 310.47318 307.62976 311.14713Q306.75693 312.02 305.61893 311.89844Q304.27103 311.74377 302.5585 310.03125ZM303.32083 309.2689Q304.8124 310.76044 305.66312 310.90408Q306.51385 311.0477 307.0221 310.53946Q307.54138 310.0202 307.38672 309.1805Q307.24307 308.32977 305.75153 306.8382Q304.24893 305.3356 303.40924 305.20303Q302.56955 305.04834 302.0392 305.57867Q301.53098 306.0869 301.6525 306.82715Q301.81824 307.7663 303.32083 309.2689ZM307.50824 305.08148Q306.42548 303.99872 305.9946 303.1259Q305.55264 302.242 305.62997 301.45758Q305.71838 300.66208 306.3813 299.99915Q306.86743 299.51303 307.4309 299.3473Q308.00543 299.17053 308.62415 299.3031Q309.2318 299.42462 309.8947 299.8224Q310.55765 300.22012 311.46362 301.1261Q312.53534 302.1978 312.96622 303.07065Q313.40817 303.93243 313.3308 304.73898Q313.25348 305.52344 312.57953 306.1974Q311.7067 307.07022 310.5687 306.9487Q309.22076 306.794 307.50824 305.08148ZM308.2706 304.31915Q309.76215 305.8107 310.61288 305.9543Q311.46362 306.09796 311.97186 305.58972Q312.49112 305.07043 312.33646 304.23074Q312.1928 303.38 310.70126 301.88846Q309.19867 300.38586 308.35898 300.25327Q307.5193 300.0986 306.98895 300.62894Q306.4807 301.13715 306.60226 301.8774Q306.76797 302.81653 308.2706 304.31915Z" fill-rule="nonzero"></path><path fill="#000000" d="M324.13907 320.11856L323.39883 320.8588L318.64795 316.10794Q318.62585 316.63824 318.44907 317.34537Q318.2723 318.03036 318.05133 318.49442L317.33316 317.77625Q317.65356 316.85922 317.70883 315.9864Q317.76407 315.09146 317.5652 314.49484L318.04028 314.01974L324.13907 320.11856ZM329.08884 315.1688L328.34857 315.90906L323.5977 311.15817Q323.5756 311.6885 323.39883 312.39563Q323.22205 313.08063 323.00107 313.54468L322.28293 312.8265Q322.60333 311.9095 322.65857 311.03665Q322.7138 310.14172 322.51495 309.5451L322.99002 309.07L329.08884 315.1688ZM329.64124 311.4344L330.3594 310.58365Q331.0223 311.0698 331.61893 311.0477Q332.22662 311.01456 332.6796 310.56155Q333.20993 310.03122 333.1768 309.2468Q333.14365 308.46234 332.4807 307.79944Q331.8399 307.1586 331.11072 307.1586Q330.3815 307.1365 329.79593 307.72208Q329.44238 308.07562 329.30978 308.53967Q329.18826 308.99268 329.27664 309.4125L328.4922 310.02017L325.9621 306.3189L328.98938 303.29163L329.6965 303.99872L327.2658 306.4294L328.5806 308.385Q328.73526 307.4569 329.33188 306.8603Q330.12738 306.0648 331.2212 306.07584Q332.32605 306.07584 333.19888 306.9487Q334.01648 307.76627 334.14905 308.84903Q334.2927 310.16382 333.28726 311.16922Q332.45862 311.99786 331.46426 312.06415Q330.48093 312.11942 329.64124 311.4344ZM333.18784 305.08148Q332.10507 303.99872 331.6742 303.1259Q331.23224 302.242 331.30957 301.45755Q331.39798 300.66208 332.06088 299.99915Q332.54703 299.51303 333.1105 299.3473Q333.68503 299.1705 334.30374 299.3031Q334.9114 299.42462 335.5743 299.8224Q336.23724 300.22012 337.14322 301.1261Q338.2149 302.1978 338.6458 303.07065Q339.08777 303.93243 339.0104 304.73898Q338.93307 305.52344 338.25912 306.1974Q337.3863 307.07022 336.2483 306.9487Q334.90036 306.794 333.18784 305.08148ZM333.9502 304.31912Q335.44174 305.8107 336.29248 305.9543Q337.14322 306.09796 337.65143 305.58972Q338.17072 305.07043 338.01605 304.23074Q337.8724 303.38 336.38086 301.88846Q334.87827 300.38586 334.03857 300.25327Q333.19888 300.0986 332.66855 300.6289Q332.1603 301.13715 332.28186 301.8774Q332.44757 302.81653 333.9502 304.31912Z" fill-rule="nonzero"></path><path fill="#000000" d="M349.81866 320.11853L349.07843 320.8588L344.32755 316.1079Q344.30545 316.63824 344.12866 317.34537Q343.9519 318.03036 343.73093 318.49442L343.01276 317.77625Q343.33316 316.85922 343.38843 315.9864Q343.44366 315.09146 343.24478 314.49484L343.71988 314.01974L349.81866 320.11853ZM355.16617 313.33475L355.8843 314.0529L351.86264 318.07455Q351.59747 317.8094 351.43176 317.4669Q351.17764 316.9034 351.11136 316.17422Q351.0561 315.43396 351.17764 314.27386Q351.3544 312.4619 351.22183 311.64432Q351.1003 310.81567 350.68045 310.3958Q350.23853 309.9539 349.61978 309.97598Q348.99002 309.98703 348.48178 310.49527Q347.94043 311.03665 347.94043 311.67746Q347.94043 312.31827 348.5039 312.90384L347.6642 313.58887Q346.87976 312.64972 346.94604 311.69955Q347.01233 310.7273 347.88516 309.85443Q348.758 308.9816 349.75238 308.9595Q350.74673 308.9374 351.4649 309.65558Q351.8295 310.02017 352.02838 310.5284Q352.22726 311.01456 352.27145 311.76584Q352.31564 312.49506 352.1941 313.9645Q352.08362 315.20193 352.09467 315.61075Q352.1057 315.99744 352.18304 316.31784L355.16617 313.33475ZM353.91766 310.03122Q352.83493 308.94846 352.40402 308.07562Q351.9621 307.19174 352.03943 306.4073Q352.1278 305.61182 352.79074 304.94888Q353.27686 304.46277 353.84033 304.29703Q354.41486 304.12024 355.03357 304.25284Q355.64124 304.37436 356.30417 304.77213Q356.96707 305.16986 357.87305 306.07584Q358.94476 307.14755 359.37567 308.0204Q359.8176 308.88217 359.74026 309.68872Q359.66293 310.47318 358.98895 311.14713Q358.11612 312.01996 356.97812 311.89844Q355.6302 311.74374 353.91766 310.03122ZM354.68002 309.26886Q356.17157 310.76044 357.0223 310.90405Q357.87305 311.0477 358.3813 310.53946Q358.90057 310.02017 358.74588 309.18048Q358.60226 308.32974 357.11072 306.8382Q355.6081 305.3356 354.7684 305.203Q353.9287 305.04834 353.3984 305.57867Q352.89017 306.08688 353.0117 306.82715Q353.17743 307.76627 354.68002 309.26886ZM358.86743 305.08148Q357.78467 303.99872 357.35376 303.1259Q356.91183 302.242 356.98917 301.45755Q357.07758 300.66205 357.74048 299.99915Q358.22662 299.513 358.7901 299.3473Q359.36462 299.1705 359.98334 299.3031Q360.591 299.42462 361.2539 299.82236Q361.9168 300.22012 362.8228 301.1261Q363.8945 302.1978 364.3254 303.07065Q364.76733 303.93243 364.69 304.73898Q364.61267 305.5234 363.93872 306.1974Q363.06586 307.07022 361.92786 306.94867Q360.57996 306.794 358.86743 305.08148ZM359.62976 304.31912Q361.12134 305.81067 361.97208 305.9543Q362.8228 306.09793 363.33102 305.58972Q363.8503 305.07043 363.69565 304.23074Q363.552 303.38 362.06046 301.88846Q360.55786 300.38583 359.71817 300.25327Q358.87848 300.09857 358.34814 300.6289Q357.8399 301.13715 357.96146 301.8774Q358.12717 302.81653 359.62976 304.31912Z" fill-rule="nonzero"></path><path fill="#000000" d="M375.49823 320.11856L374.758 320.8588L370.0071 316.10794Q369.98502 316.63828 369.80823 317.34537Q369.63147 318.0304 369.4105 318.49442L368.69232 317.77628Q369.01276 316.85922 369.068 315.9864Q369.12323 315.09146 368.92435 314.49484L369.39944 314.01978L375.49823 320.11856ZM380.84573 313.33475L381.5639 314.05292L377.5422 318.0746Q377.27707 317.80942 377.11133 317.46692Q376.8572 316.90344 376.79092 316.17422Q376.7357 315.434 376.8572 314.27386Q377.034 312.4619 376.9014 311.64432Q376.77988 310.81567 376.36002 310.39584Q375.9181 309.9539 375.29938 309.97598Q374.6696 309.98703 374.16138 310.49527Q373.62 311.03665 373.62 311.67746Q373.62 312.3183 374.18347 312.90387L373.34378 313.58887Q372.55933 312.64975 372.6256 311.69955Q372.6919 310.7273 373.56476 309.85446Q374.4376 308.98163 375.43195 308.95953Q376.42633 308.93744 377.14447 309.65558Q377.50906 310.0202 377.70795 310.5284Q377.90683 311.01456 377.95102 311.76587Q377.9952 312.49506 377.8737 313.9645Q377.76318 315.20197 377.77423 315.61075Q377.78528 315.99744 377.86264 316.31787L380.84573 313.33475ZM381.00043 311.43442L381.71857 310.58368Q382.38147 311.0698 382.9781 311.0477Q383.5858 311.01456 384.03876 310.56155Q384.5691 310.03125 384.53595 309.2468Q384.5028 308.46234 383.8399 307.79944Q383.19907 307.15863 382.46988 307.15863Q381.74066 307.1365 381.1551 307.7221Q380.80154 308.07565 380.66895 308.53967Q380.54742 308.99268 380.6358 309.4125L379.85138 310.0202L377.32126 306.31894L380.34854 303.29163L381.05566 303.99872L378.62497 306.4294L379.93976 308.385Q380.09442 307.45694 380.69104 306.8603Q381.48654 306.06482 382.58035 306.07587Q383.6852 306.07587 384.55804 306.9487Q385.37564 307.7663 385.5082 308.84903Q385.65186 310.16382 384.64642 311.16925Q383.81778 311.99786 382.82343 312.06418Q381.84012 312.11942 381.00043 311.43442ZM384.547 305.08148Q383.46423 303.99872 383.03336 303.1259Q382.5914 302.242 382.66873 301.45758Q382.75714 300.66208 383.42004 299.99915Q383.9062 299.51303 384.46967 299.3473Q385.0442 299.17053 385.6629 299.3031Q386.27057 299.42462 386.93347 299.8224Q387.5964 300.22012 388.50238 301.1261Q389.5741 302.1978 390.00497 303.07065Q390.44693 303.93243 390.36957 304.73898Q390.29224 305.52344 389.6183 306.1974Q388.74545 307.07022 387.60745 306.9487Q386.25952 306.794 384.547 305.08148ZM385.30936 304.31915Q386.8009 305.8107 387.65164 305.9543Q388.50238 306.09796 389.01062 305.58972Q389.52988 305.07043 389.3752 304.23074Q389.23157 303.38 387.74002 301.88846Q386.23743 300.38586 385.39774 300.25327Q384.55804 300.0986 384.0277 300.62894Q383.51947 301.13715 383.64102 301.8774Q383.80673 302.81653 385.30936 304.31915Z" fill-rule="nonzero"></path><path fill="#000000" d="M401.17783 320.11856L400.4376 320.8588L395.6867 316.10794Q395.6646 316.63828 395.48782 317.34537Q395.31107 318.03036 395.0901 318.49442L394.37192 317.77625Q394.69235 316.85922 394.7476 315.9864Q394.80283 315.09146 394.60394 314.49484L395.07904 314.01974L401.17783 320.11856ZM401.7192 316.3731L402.37106 315.52237Q403.12238 316.03058 403.719 316.00848Q404.30457 315.97534 404.74652 315.53342Q405.27686 315.00308 405.27686 314.27386Q405.27686 313.54468 404.73547 313.0033Q404.22723 312.49506 403.55328 312.5061Q402.8793 312.49506 402.36002 313.01434Q402.15012 313.22427 401.9181 313.63306L401.34357 312.88174Q401.43195 312.81546 401.47614 312.77127Q401.95123 312.29617 402.0838 311.67746Q402.2164 311.03665 401.6971 310.51736Q401.28833 310.10858 400.74695 310.11963Q400.19452 310.11963 399.75256 310.56155Q399.3217 310.99246 399.2996 311.567Q399.28854 312.13046 399.75256 312.74918L398.86868 313.3679Q398.26102 312.49506 398.33835 311.60013Q398.40466 310.69415 399.1228 309.97598Q399.62 309.4788 400.2608 309.27994Q400.89056 309.07 401.47614 309.21365Q402.0617 309.35727 402.48157 309.7771Q402.86826 310.16382 402.9898 310.7052Q403.10028 311.23553 402.8793 311.83215Q403.53116 311.42334 404.22723 311.5228Q404.91223 311.61118 405.50885 312.2078Q406.30435 313.0033 406.2712 314.1413Q406.2491 315.26825 405.36523 316.15213Q404.56973 316.94763 403.56433 317.00287Q402.54785 317.04706 401.7192 316.3731ZM405.27686 310.03122Q404.1941 308.9485 403.76318 308.07565Q403.32126 307.19174 403.3986 306.40732Q403.48697 305.61182 404.1499 304.9489Q404.63602 304.46277 405.1995 304.29703Q405.77402 304.12027 406.39273 304.25284Q407.00043 304.3744 407.66333 304.77213Q408.32623 305.16986 409.2322 306.07587Q410.30392 307.14755 410.73483 308.0204Q411.17676 308.88217 411.09943 309.68872Q411.0221 310.47318 410.3481 311.14713Q409.47528 312.01996 408.33728 311.89844Q406.98938 311.74374 405.27686 310.03122ZM406.03918 309.2689Q407.53073 310.76044 408.38147 310.90405Q409.2322 311.0477 409.74045 310.53946Q410.25974 310.02017 410.10504 309.18048Q409.96143 308.32974 408.46988 306.8382Q406.96725 305.3356 406.1276 305.203Q405.2879 305.04834 404.75757 305.57867Q404.24933 306.0869 404.37085 306.82715Q404.5366 307.76627 406.03918 309.2689ZM410.2266 305.08148Q409.14383 303.99872 408.71295 303.1259Q408.271 302.242 408.34833 301.45755Q408.43674 300.66208 409.09964 299.99915Q409.5858 299.51303 410.14926 299.3473Q410.7238 299.1705 411.3425 299.3031Q411.95016 299.42462 412.61307 299.8224Q413.276 300.22012 414.18198 301.1261Q415.25366 302.1978 415.68457 303.07065Q416.12653 303.93243 416.04916 304.73898Q415.97183 305.52344 415.29788 306.1974Q414.42505 307.07022 413.28705 306.9487Q411.93912 306.794 410.2266 305.08148ZM410.98895 304.31912Q412.4805 305.8107 413.33124 305.9543Q414.18198 306.09796 414.69022 305.58972Q415.20947 305.07043 415.0548 304.23074Q414.91116 303.38 413.41962 301.88846Q411.91702 300.38586 411.07733 300.25327Q410.23764 300.0986 409.7073 300.6289Q409.19907 301.13715 409.32062 301.8774Q409.48633 302.81653 410.98895 304.31912Z" fill-rule="nonzero"></path><path fill="#000000" d="M426.85742 320.11853L426.1172 320.8588L421.3663 316.1079Q421.3442 316.63824 421.16742 317.34537Q420.99066 318.03036 420.76968 318.49442L420.0515 317.77625Q420.37192 316.85922 420.4272 315.9864Q420.48242 315.09146 420.28354 314.49484L420.75864 314.01974L426.85742 320.11853ZM427.3988 316.37308L428.05066 315.52234Q428.80197 316.03058 429.3986 316.00848Q429.98416 315.97534 430.42612 315.5334Q430.95642 315.00308 430.95642 314.27386Q430.95642 313.54465 430.41507 313.0033Q429.90683 312.49506 429.23285 312.5061Q428.5589 312.49506 428.0396 313.01434Q427.8297 313.22424 427.5977 313.63306L427.02316 312.88174Q427.11154 312.81546 427.15573 312.77127Q427.63083 312.29617 427.7634 311.67746Q427.896 311.03665 427.3767 310.51736Q426.96793 310.10855 426.42654 310.1196Q425.8741 310.1196 425.43216 310.56155Q425.00128 310.99246 424.9792 311.567Q424.96814 312.13046 425.43216 312.74918L424.54828 313.3679Q423.9406 312.49506 424.01794 311.60013Q424.08423 310.69412 424.8024 309.97598Q425.2996 309.4788 425.9404 309.27994Q426.57016 309.07 427.15573 309.21362Q427.7413 309.35727 428.16116 309.7771Q428.54785 310.16382 428.66937 310.7052Q428.77988 311.2355 428.5589 311.83212Q429.21075 311.42334 429.90683 311.52277Q430.59183 311.61118 431.18845 312.2078Q431.98395 313.0033 431.9508 314.1413Q431.9287 315.26822 431.04483 316.15213Q430.24933 316.9476 429.2439 317.00287Q428.22745 317.04706 427.3988 316.37308ZM432.3596 311.4344L433.07776 310.58365Q433.74066 311.0698 434.33728 311.0477Q434.94495 311.01456 435.39795 310.56155Q435.92828 310.03122 435.89514 309.24677Q435.862 308.46234 435.19907 307.7994Q434.55826 307.1586 433.82907 307.1586Q433.09985 307.1365 432.51428 307.72208Q432.16074 308.07562 432.02814 308.53967Q431.90662 308.99268 431.995 309.4125L431.21054 310.02017L428.68045 306.3189L431.70773 303.29163L432.41486 303.99872L429.98416 306.4294L431.29895 308.38498Q431.4536 307.4569 432.05023 306.8603Q432.84573 306.0648 433.93954 306.07584Q435.0444 306.07584 435.91724 306.94867Q436.73483 307.76627 436.8674 308.84903Q437.01105 310.16382 436.0056 311.16922Q435.17697 311.99786 434.18262 312.06415Q433.19928 312.1194 432.3596 311.4344ZM435.9062 305.08148Q434.82343 303.99872 434.39252 303.1259Q433.9506 302.242 434.02792 301.45755Q434.11633 300.66205 434.77924 299.99915Q435.26538 299.513 435.82886 299.3473Q436.40338 299.1705 437.0221 299.3031Q437.62976 299.42462 438.29266 299.82236Q438.95557 300.22012 439.86157 301.1261Q440.93326 302.1978 441.36417 303.07065Q441.8061 303.93243 441.72876 304.73898Q441.65143 305.5234 440.97748 306.1974Q440.1046 307.07022 438.96664 306.94867Q437.6187 306.794 435.9062 305.08148ZM436.66852 304.31912Q438.1601 305.81067 439.01083 305.9543Q439.86157 306.09793 440.36978 305.58972Q440.88907 305.07043 440.7344 304.23074Q440.59076 303.38 439.0992 301.88846Q437.59662 300.38583 436.75693 300.25327Q435.91724 300.09857 435.3869 300.6289Q434.87866 301.13715 435.0002 301.8774Q435.16592 302.81653 436.66852 304.31912Z" fill-rule="nonzero"></path><path fill="#000000" d="M452.537 320.11856L451.79675 320.85883L447.04587 316.10794Q447.02377 316.63828 446.847 317.34537Q446.67023 318.0304 446.44925 318.49442L445.7311 317.77628Q446.0515 316.85925 446.10675 315.9864Q446.162 315.09146 445.9631 314.49484L446.4382 314.01978L452.537 320.11856ZM457.0669 315.58865L455.6085 314.13025L452.97894 316.7598L452.2939 316.0748L451.13382 309.36832L451.74152 308.76065L455.67477 312.69394L456.49237 311.87634L457.1774 312.56137L456.3598 313.37894L457.8182 314.83734L457.0669 315.58865ZM454.9235 313.44525L452.1945 310.71625L453.02313 315.34558L454.9235 313.44525ZM456.63602 310.03125Q455.55325 308.9485 455.12234 308.07565Q454.68042 307.19177 454.75775 306.40732Q454.84613 305.61182 455.50906 304.9489Q455.99518 304.46277 456.55865 304.29706Q457.13318 304.12027 457.75192 304.25284Q458.3596 304.3744 459.0225 304.77213Q459.6854 305.1699 460.5914 306.07587Q461.6631 307.14758 462.094 308.02042Q462.53592 308.8822 462.4586 309.68872Q462.38126 310.47318 461.70728 311.14716Q460.83444 312.02 459.69644 311.89844Q458.34854 311.74377 456.63602 310.03125ZM457.39835 309.2689Q458.88992 310.76044 459.74066 310.90408Q460.5914 311.0477 461.0996 310.53946Q461.6189 310.0202 461.46423 309.1805Q461.3206 308.32977 459.82904 306.8382Q458.32645 305.3356 457.48676 305.20303Q456.64706 305.04834 456.11673 305.57867Q455.6085 306.0869 455.73004 306.82715Q455.89575 307.7663 457.39835 309.2689ZM461.58575 305.08148Q460.503 303.99875 460.0721 303.1259Q459.63016 302.242 459.7075 301.45758Q459.7959 300.66208 460.4588 299.99918Q460.94495 299.51303 461.50842 299.3473Q462.08295 299.17053 462.70166 299.3031Q463.30933 299.42465 463.97223 299.8224Q464.63516 300.22012 465.54114 301.1261Q466.61285 302.1978 467.04373 303.07065Q467.4857 303.93243 467.40833 304.73898Q467.331 305.52344 466.65704 306.1974Q465.7842 307.07022 464.6462 306.9487Q463.29828 306.794 461.58575 305.08148ZM462.3481 304.31915Q463.83966 305.8107 464.6904 305.9543Q465.54114 306.09796 466.04938 305.58972Q466.56863 305.07043 466.41397 304.23074Q466.27032 303.38 464.77878 301.88846Q463.27618 300.38586 462.4365 300.25327Q461.5968 300.0986 461.06647 300.62894Q460.55823 301.13718 460.67978 301.8774Q460.8455 302.81653 462.3481 304.31915Z" fill-rule="nonzero"></path><path fill="#000000" d="M478.21658 320.11856L477.47635 320.8588L472.72546 316.10794Q472.70337 316.63828 472.52658 317.34537Q472.34982 318.03036 472.12885 318.49442L471.41068 317.77628Q471.7311 316.85922 471.78635 315.9864Q471.84158 315.09146 471.6427 314.49484L472.1178 314.01974L478.21658 320.11856ZM482.7465 315.58865L481.2881 314.13025L478.65854 316.7598L477.9735 316.0748L476.81342 309.36832L477.42108 308.76065L481.35437 312.69394L482.17197 311.87634L482.85696 312.56134L482.0394 313.37894L483.4978 314.83734L482.7465 315.58865ZM480.6031 313.44522L477.87408 310.71625L478.70273 315.34558L480.6031 313.44522ZM483.71875 311.4344L484.43692 310.58365Q485.09982 311.0698 485.69644 311.0477Q486.30414 311.01456 486.7571 310.56155Q487.28745 310.03122 487.2543 309.2468Q487.22116 308.46234 486.55823 307.79944Q485.91742 307.1586 485.18823 307.1586Q484.459 307.1365 483.87344 307.72208Q483.5199 308.07565 483.3873 308.53967Q483.26578 308.99268 483.35416 309.4125L482.5697 310.02017L480.0396 306.3189L483.0669 303.29163L483.77402 303.99872L481.34332 306.4294L482.6581 308.385Q482.81277 307.4569 483.4094 306.8603Q484.2049 306.06482 485.2987 306.07587Q486.40356 306.07587 487.2764 306.9487Q488.094 307.7663 488.22656 308.84903Q488.3702 310.16382 487.36478 311.16922Q486.53613 311.99786 485.54178 312.06418Q484.55844 312.11942 483.71875 311.4344ZM487.26535 305.08148Q486.1826 303.99872 485.7517 303.1259Q485.30975 302.242 485.3871 301.45755Q485.4755 300.66208 486.1384 299.99915Q486.62454 299.51303 487.18802 299.3473Q487.76254 299.1705 488.38126 299.3031Q488.98892 299.42462 489.65182 299.8224Q490.31476 300.22012 491.22073 301.1261Q492.29245 302.1978 492.72333 303.07065Q493.16528 303.93243 493.08792 304.73898Q493.0106 305.52344 492.33664 306.1974Q491.4638 307.07022 490.3258 306.9487Q488.97787 306.794 487.26535 305.08148ZM488.0277 304.31912Q489.51926 305.8107 490.37 305.9543Q491.22073 306.09796 491.72897 305.58972Q492.24823 305.07043 492.09357 304.23074Q491.94992 303.38 490.45837 301.88846Q488.95578 300.38586 488.1161 300.25327Q487.2764 300.0986 486.74606 300.62894Q486.23782 301.13715 486.35938 301.8774Q486.5251 302.81653 488.0277 304.31912Z" fill-rule="nonzero"></path><path fill="#000000" d="M503.89618 320.11856L503.15594 320.8588L498.40506 316.1079Q498.38297 316.63824 498.20618 317.34537Q498.02942 318.03036 497.80844 318.49442L497.09027 317.77625Q497.41068 316.85922 497.46594 315.9864Q497.52118 315.09146 497.3223 314.49484L497.7974 314.01974L503.89618 320.11856ZM504.4486 316.38412L505.16678 315.5334Q505.82968 316.01953 506.4263 315.99744Q507.03397 315.9643 507.48697 315.5113Q508.0173 314.981 507.98413 314.19653Q507.951 313.41208 507.2881 312.74918Q506.64728 312.10834 505.91806 312.10834Q505.18887 312.08624 504.6033 312.6718Q504.24973 313.0254 504.11716 313.4894Q503.9956 313.9424 504.084 314.36224L503.29956 314.96994L500.76944 311.26868L503.79675 308.24136L504.50385 308.94846L502.07318 311.37915L503.38794 313.33475Q503.54263 312.40668 504.13925 311.81003Q504.93475 311.01456 506.02856 311.0256Q507.1334 311.0256 508.00626 311.89844Q508.82382 312.71603 508.95642 313.79877Q509.10004 315.11356 508.09464 316.119Q507.266 316.9476 506.2716 317.01392Q505.2883 317.06915 504.4486 316.38412ZM507.99518 310.03122Q506.91245 308.94846 506.48154 308.07562Q506.0396 307.19174 506.11694 306.40732Q506.20532 305.61182 506.86826 304.94888Q507.35437 304.46277 507.91785 304.29703Q508.49237 304.12027 509.11108 304.25284Q509.71878 304.37436 510.38168 304.77213Q511.0446 305.16986 511.95056 306.07584Q513.0223 307.14755 513.4532 308.0204Q513.89514 308.88217 513.81775 309.68872Q513.7404 310.47318 513.06647 311.14713Q512.19366 312.01996 511.05563 311.89844Q509.7077 311.74374 507.99518 310.03122ZM508.75754 309.2689Q510.24908 310.76044 511.09982 310.90405Q511.95056 311.0477 512.4588 310.53946Q512.9781 310.02017 512.8234 309.18048Q512.67975 308.32974 511.18823 306.8382Q509.6856 305.3356 508.84592 305.203Q508.00626 305.04834 507.47592 305.57867Q506.96768 306.08688 507.0892 306.82715Q507.25494 307.76627 508.75754 309.2689ZM512.94495 305.08148Q511.86218 303.99872 511.4313 303.1259Q510.98935 302.242 511.06668 301.45755Q511.1551 300.66205 511.818 299.99915Q512.30414 299.513 512.8676 299.3473Q513.44214 299.1705 514.06085 299.3031Q514.6685 299.42462 515.3314 299.82236Q515.9943 300.22012 516.9003 301.1261Q517.97205 302.1978 518.4029 303.07065Q518.84485 303.93243 518.7675 304.73898Q518.6902 305.5234 518.01624 306.1974Q517.1434 307.07022 516.0054 306.94867Q514.6575 306.794 512.94495 305.08148ZM513.7073 304.31912Q515.19885 305.81067 516.04956 305.9543Q516.9003 306.09793 517.40857 305.58972Q517.92786 305.07043 517.77313 304.23074Q517.6295 303.38 516.13794 301.88846Q514.6354 300.38583 513.79565 300.25327Q512.956 300.09857 512.42566 300.6289Q511.91742 301.13715 512.03894 301.8774Q512.2047 302.81653 513.7073 304.31912Z" fill-rule="nonzero"></path><path fill="#000000" d="M529.57574 320.11856L528.8355 320.85883L524.08466 316.10794Q524.06256 316.63828 523.88574 317.34537Q523.709 318.0304 523.48804 318.49442L522.76984 317.77628Q523.0903 316.85925 523.1455 315.98642Q523.20074 315.09146 523.0019 314.49484L523.477 314.01978L529.57574 320.11856ZM530.1282 316.38416L530.8463 315.53342Q531.5093 316.01956 532.1059 315.99747Q532.71356 315.9643 533.1665 315.51132Q533.69684 314.981 533.6637 314.19653Q533.63055 313.4121 532.96765 312.74918Q532.32684 312.10837 531.59766 312.10837Q530.8684 312.08627 530.28284 312.67184Q529.9293 313.0254 529.79675 313.48944Q529.6752 313.9424 529.7636 314.36227L528.9791 314.96994L526.44904 311.26868L529.4763 308.24136L530.1834 308.9485L527.75275 311.37915L529.0675 313.33475Q529.2222 312.40668 529.81885 311.81006Q530.6143 311.01456 531.7081 311.0256Q532.813 311.0256 533.6858 311.89844Q534.5034 312.71603 534.636 313.7988Q534.7796 315.11356 533.77423 316.119Q532.94556 316.94763 531.9512 317.01392Q530.9679 317.06915 530.1282 316.38416ZM535.07794 311.43442L535.7961 310.58368Q536.459 311.0698 537.0556 311.0477Q537.66327 311.01456 538.1163 310.56158Q538.6466 310.03125 538.61346 309.2468Q538.5803 308.46234 537.9174 307.79944Q537.2766 307.15863 536.54736 307.15863Q535.8182 307.13654 535.2326 307.7221Q534.879 308.07565 534.74646 308.53967Q534.62494 308.99268 534.7133 309.41254L533.9289 310.0202L531.39874 306.31894L534.4261 303.29163L535.1332 303.99875L532.7025 306.4294L534.0173 308.385Q534.17194 307.45694 534.76855 306.86032Q535.5641 306.06482 536.6579 306.07587Q537.76276 306.07587 538.63556 306.9487Q539.4531 307.7663 539.58575 308.84906Q539.7294 310.16382 538.72394 311.16925Q537.8953 311.9979 536.90094 312.06418Q535.9176 312.11942 535.07794 311.43442ZM538.6245 305.08148Q537.54175 303.99875 537.11084 303.12592Q536.66895 302.242 536.7463 301.45758Q536.83466 300.66208 537.49756 299.99918Q537.9837 299.51303 538.5472 299.3473Q539.1217 299.17053 539.7404 299.3031Q540.3481 299.42465 541.011 299.8224Q541.6739 300.22012 542.5799 301.12613Q543.6516 302.1978 544.0825 303.07065Q544.5244 303.93243 544.4471 304.73898Q544.36975 305.52344 543.6958 306.1974Q542.82294 307.07022 541.68494 306.9487Q540.33704 306.794 538.6245 305.08148ZM539.38684 304.31915Q540.8784 305.8107 541.7291 305.9543Q542.5799 306.09796 543.08813 305.58972Q543.6074 305.07043 543.4527 304.23074Q543.3091 303.38 541.81757 301.88846Q540.31494 300.38586 539.4753 300.25327Q538.63556 300.0986 538.1052 300.62894Q537.597 301.13718 537.7185 301.8774Q537.8843 302.81653 539.38684 304.31915Z" fill-rule="nonzero"></path><path fill="#000000" d="M555.2554 320.11853L554.51514 320.8588L549.7642 316.1079Q549.7421 316.63824 549.56537 317.34534Q549.3886 318.03036 549.1676 318.4944L548.44946 317.77625Q548.7699 316.85922 548.82513 315.9864Q548.8804 315.09143 548.68146 314.4948L549.15656 314.01974L555.2554 320.11853ZM556.6806 309.52298L555.9956 310.31848Q555.4542 309.97598 555.0786 309.9539Q554.44885 309.9428 554.0069 310.38477Q553.6533 310.7383 553.576 311.2134Q553.49866 311.82108 553.7859 312.5282Q554.0732 313.2132 554.9681 314.13022Q554.82446 313.45627 555.0123 312.8707Q555.2112 312.27408 555.6421 311.84317Q556.3823 311.10294 557.45404 311.13608Q558.5368 311.15817 559.39856 312.01996Q559.9731 312.59448 560.2162 313.34576Q560.4592 314.07498 560.2935 314.77103Q560.1167 315.45605 559.5754 315.99744Q558.6362 316.93655 557.36566 316.83713Q556.09503 316.73767 554.5262 315.1688Q552.7584 313.40103 552.61475 311.95367Q552.4822 310.69412 553.4434 309.7329Q554.16156 309.01474 555.0234 308.97055Q555.88513 308.90427 556.6806 309.52298ZM556.2608 315.17984Q556.64746 315.56653 557.1557 315.7654Q557.66394 315.94217 558.13904 315.84274Q558.6252 315.73227 558.9566 315.40082Q559.42065 314.93677 559.3875 314.2186Q559.3433 313.4894 558.69147 312.83755Q558.0617 312.20776 557.3546 312.18567Q556.6585 312.15253 556.1503 312.66077Q555.6421 313.169 555.65314 313.88715Q555.67523 314.59427 556.2608 315.17984ZM559.3544 310.03122Q558.2716 308.94846 557.84076 308.07562Q557.3988 307.19174 557.47614 306.4073Q557.5645 305.6118 558.2274 304.94888Q558.71356 304.46274 559.27704 304.29703Q559.85156 304.12024 560.4703 304.25284Q561.07794 304.37436 561.74084 304.7721Q562.40375 305.16986 563.30975 306.07584Q564.3815 307.14755 564.8124 308.0204Q565.2543 308.88217 565.17694 309.68872Q565.0996 310.47314 564.42566 311.14713Q563.55286 312.01996 562.41486 311.8984Q561.0669 311.74374 559.3544 310.03122ZM560.1167 309.26886Q561.6083 310.7604 562.45905 310.90405Q563.30975 311.04767 563.818 310.53946Q564.3373 310.02017 564.1826 309.18048Q564.03894 308.32974 562.5474 306.8382Q561.0448 305.33557 560.20514 305.203Q559.3654 305.0483 558.8351 305.57864Q558.32684 306.08688 558.4484 306.82715Q558.61414 307.76627 560.1167 309.26886ZM564.30414 305.08145Q563.2214 303.99872 562.79047 303.1259Q562.3485 302.242 562.4259 301.45755Q562.5143 300.66205 563.1772 299.99915Q563.6633 299.513 564.2268 299.34726Q564.80133 299.1705 565.42004 299.30307Q566.0277 299.42462 566.6906 299.82236Q567.3535 300.2201 568.2595 301.1261Q569.33124 302.19778 569.7621 303.07062Q570.20404 303.9324 570.1267 304.73895Q570.0494 305.5234 569.3754 306.19736Q568.50256 307.0702 567.36456 306.94867Q566.01666 306.79398 564.30414 305.08145ZM565.06647 304.31912Q566.55804 305.81067 567.40875 305.9543Q568.2595 306.09793 568.76776 305.5897Q569.28705 305.0704 569.1323 304.2307Q568.9887 303.38 567.49713 301.88843Q565.99457 300.38583 565.15485 300.25327Q564.3152 300.09857 563.78485 300.6289Q563.2766 301.13715 563.39813 301.87738Q563.5639 302.81653 565.06647 304.31912Z" fill-rule="nonzero"></path><path fill="#757575" d="M213.90625 32.95625L215.6875 32.8Q215.8125 33.8625 216.26562 34.55Q216.73438 35.2375 217.70312 35.675Q218.6875 36.096874 219.92188 36.096874Q221.0 36.096874 221.82812 35.784374Q222.65625 35.45625 223.0625 34.89375Q223.46875 34.33125 223.46875 33.659374Q223.46875 32.9875 223.07812 32.4875Q222.6875 31.9875 221.79688 31.64375Q221.21875 31.409374 219.23438 30.940624Q217.26562 30.471874 216.48438 30.05Q215.45312 29.51875 214.95312 28.721874Q214.45312 27.925 214.45312 26.940624Q214.45312 25.846874 215.0625 24.909374Q215.67188 23.971874 216.85938 23.4875Q218.04688 22.9875 219.48438 22.9875Q221.07812 22.9875 222.29688 23.503124Q223.51562 24.01875 224.15625 25.01875Q224.8125 26.003124 224.85938 27.26875L223.04688 27.409374Q222.90625 26.05 222.0625 25.3625Q221.21875 24.659374 219.5625 24.659374Q217.84375 24.659374 217.04688 25.3Q216.26562 25.925 216.26562 26.8Q216.26562 27.58125 216.82812 28.08125Q217.375 28.58125 219.6875 29.096874Q222.0 29.6125 222.85938 30.003124Q224.10938 30.58125 224.70312 31.471874Q225.29688 32.346874 225.29688 33.503124Q225.29688 34.64375 224.64062 35.659374Q223.98438 36.675 222.75 37.2375Q221.53125 37.8 220.0 37.8Q218.0625 37.8 216.75 37.2375Q215.4375 36.659374 214.6875 35.51875Q213.9375 34.378124 213.90625 32.95625ZM225.96875 37.55L231.46875 23.2375L233.51562 23.2375L239.375 37.55L237.21875 37.55L235.54688 33.20625L229.5625 33.20625L227.98438 37.55L225.96875 37.55ZM230.10938 31.675L234.95312 31.675L233.46875 27.70625Q232.78125 25.89375 232.45312 24.7375Q232.17188 26.1125 231.67188 27.471874L230.10938 31.675ZM244.1875 37.55L244.1875 24.925L239.46875 24.925L239.46875 23.2375L250.8125 23.2375L250.8125 24.925L246.07812 24.925L246.07812 37.55L244.1875 37.55ZM257.60938 34.45625L259.35938 34.175Q259.5 35.221874 260.17188 35.784374Q260.84375 36.33125 262.04688 36.33125Q263.25 36.33125 263.82812 35.846874Q264.42188 35.346874 264.42188 34.690624Q264.42188 34.096874 263.90625 33.753124Q263.54688 33.51875 262.10938 33.159374Q260.17188 32.659374 259.42188 32.315624Q258.6875 31.95625 258.29688 31.33125Q257.90625 30.690624 257.90625 29.925Q257.90625 29.2375 258.21875 28.64375Q258.54688 28.05 259.09375 27.659374Q259.5 27.3625 260.20312 27.159374Q260.92188 26.940624 261.73438 26.940624Q262.95312 26.940624 263.875 27.3Q264.79688 27.64375 265.23438 28.253124Q265.67188 28.846874 265.84375 29.846874L264.125 30.08125Q264.0 29.284374 263.4375 28.846874Q262.875 28.39375 261.85938 28.39375Q260.64062 28.39375 260.125 28.8Q259.60938 29.190624 259.60938 29.721874Q259.60938 30.065624 259.82812 30.346874Q260.03125 30.628124 260.5 30.815624Q260.76562 30.909374 262.04688 31.253124Q263.92188 31.753124 264.65625 32.08125Q265.39062 32.39375 265.8125 33.003124Q266.23438 33.596874 266.23438 34.503124Q266.23438 35.378124 265.71875 36.159374Q265.20312 36.940624 264.23438 37.3625Q263.26562 37.784374 262.04688 37.784374Q260.03125 37.784374 258.96875 36.940624Q257.90625 36.096874 257.60938 34.45625ZM275.09375 33.753124L276.8125 33.971874Q276.53125 35.76875 275.35938 36.784374Q274.20312 37.784374 272.5 37.784374Q270.375 37.784374 269.07812 36.39375Q267.78125 35.003124 267.78125 32.409374Q267.78125 30.721874 268.32812 29.471874Q268.89062 28.20625 270.03125 27.58125Q271.17188 26.940624 272.51562 26.940624Q274.20312 26.940624 275.26562 27.8Q276.34375 28.659374 276.65625 30.221874L274.9375 30.4875Q274.70312 29.440624 274.07812 28.925Q273.45312 28.39375 272.57812 28.39375Q271.25 28.39375 270.42188 29.346874Q269.59375 30.3 269.59375 32.346874Q269.59375 34.440624 270.39062 35.39375Q271.1875 36.33125 272.48438 36.33125Q273.51562 36.33125 274.20312 35.70625Q274.90625 35.065624 275.09375 33.753124ZM277.67188 32.3625Q277.67188 29.4875 279.26562 28.096874Q280.60938 26.940624 282.53125 26.940624Q284.67188 26.940624 286.01562 28.346874Q287.375 29.753124 287.375 32.221874Q287.375 34.221874 286.78125 35.378124Q286.1875 36.51875 285.03125 37.159374Q283.89062 37.784374 282.53125 37.784374Q280.34375 37.784374 279.0 36.39375Q277.67188 34.9875 277.67188 32.3625ZM279.46875 32.3625Q279.46875 34.3625 280.32812 35.346874Q281.20312 36.33125 282.53125 36.33125Q283.84375 36.33125 284.70312 35.346874Q285.57812 34.346874 285.57812 32.3Q285.57812 30.378124 284.70312 29.39375Q283.82812 28.39375 282.53125 28.39375Q281.20312 28.39375 280.32812 29.39375Q279.46875 30.378124 279.46875 32.3625ZM289.29688 37.55L289.29688 27.175L290.875 27.175L290.875 28.753124Q291.48438 27.64375 292.0 27.3Q292.51562 26.940624 293.125 26.940624Q294.01562 26.940624 294.9375 27.503124L294.32812 29.14375Q293.6875 28.753124 293.04688 28.753124Q292.46875 28.753124 292.0 29.1125Q291.54688 29.45625 291.34375 30.065624Q291.0625 31.003124 291.0625 32.1125L291.0625 37.55L289.29688 37.55ZM303.42188 34.20625L305.23438 34.440624Q304.8125 36.01875 303.64062 36.909374Q302.48438 37.784374 300.67188 37.784374Q298.40625 37.784374 297.0625 36.39375Q295.73438 34.9875 295.73438 32.45625Q295.73438 29.83125 297.07812 28.39375Q298.42188 26.940624 300.57812 26.940624Q302.65625 26.940624 303.96875 28.3625Q305.29688 29.76875 305.29688 32.346874Q305.29688 32.503124 305.28125 32.815624L297.54688 32.815624Q297.64062 34.51875 298.51562 35.425Q299.39062 36.33125 300.6875 36.33125Q301.65625 36.33125 302.32812 35.83125Q303.01562 35.315624 303.42188 34.20625ZM297.64062 31.3625L303.4375 31.3625Q303.32812 30.065624 302.78125 29.409374Q301.9375 28.39375 300.59375 28.39375Q299.39062 28.39375 298.5625 29.20625Q297.73438 30.003124 297.64062 31.3625ZM306.60938 34.45625L308.35938 34.175Q308.5 35.221874 309.17188 35.784374Q309.84375 36.33125 311.04688 36.33125Q312.25 36.33125 312.82812 35.846874Q313.42188 35.346874 313.42188 34.690624Q313.42188 34.096874 312.90625 33.753124Q312.54688 33.51875 311.10938 33.159374Q309.17188 32.659374 308.42188 32.315624Q307.6875 31.95625 307.29688 31.33125Q306.90625 30.690624 306.90625 29.925Q306.90625 29.2375 307.21875 28.64375Q307.54688 28.05 308.09375 27.659374Q308.5 27.3625 309.20312 27.159374Q309.92188 26.940624 310.73438 26.940624Q311.95312 26.940624 312.875 27.3Q313.79688 27.64375 314.23438 28.253124Q314.67188 28.846874 314.84375 29.846874L313.125 30.08125Q313.0 29.284374 312.4375 28.846874Q311.875 28.39375 310.85938 28.39375Q309.64062 28.39375 309.125 28.8Q308.60938 29.190624 308.60938 29.721874Q308.60938 30.065624 308.82812 30.346874Q309.03125 30.628124 309.5 30.815624Q309.76562 30.909374 311.04688 31.253124Q312.92188 31.753124 313.65625 32.08125Q314.39062 32.39375 314.8125 33.003124Q315.23438 33.596874 315.23438 34.503124Q315.23438 35.378124 314.71875 36.159374Q314.20312 36.940624 313.23438 37.3625Q312.26562 37.784374 311.04688 37.784374Q309.03125 37.784374 307.96875 36.940624Q306.90625 36.096874 306.60938 34.45625ZM323.32812 25.253124L323.32812 23.2375L325.09375 23.2375L325.09375 25.253124L323.32812 25.253124ZM323.32812 37.55L323.32812 27.175L325.09375 27.175L325.09375 37.55L323.32812 37.55ZM327.3125 37.55L327.3125 27.175L328.90625 27.175L328.90625 28.659374Q330.04688 26.940624 332.20312 26.940624Q333.14062 26.940624 333.92188 27.284374Q334.71875 27.6125 335.10938 28.159374Q335.5 28.70625 335.65625 29.45625Q335.75 29.95625 335.75 31.175L335.75 37.55L333.98438 37.55L333.98438 31.2375Q333.98438 30.159374 333.78125 29.628124Q333.57812 29.096874 333.04688 28.784374Q332.53125 28.471874 331.82812 28.471874Q330.70312 28.471874 329.89062 29.190624Q329.07812 29.89375 329.07812 31.878124L329.07812 37.55L327.3125 37.55ZM353.0625 35.8625L353.0625 37.55L343.60938 37.55Q343.59375 36.909374 343.8125 36.33125Q344.17188 35.3625 344.96875 34.425Q345.76562 33.4875 347.26562 32.253124Q349.60938 30.346874 350.42188 29.2375Q351.25 28.1125 351.25 27.1125Q351.25 26.065624 350.5 25.346874Q349.75 24.628124 348.54688 24.628124Q347.28125 24.628124 346.51562 25.39375Q345.75 26.159374 345.75 27.503124L343.9375 27.315624Q344.125 25.3 345.32812 24.2375Q346.54688 23.175 348.59375 23.175Q350.64062 23.175 351.84375 24.315624Q353.04688 25.45625 353.04688 27.14375Q353.04688 28.003124 352.6875 28.846874Q352.34375 29.675 351.53125 30.596874Q350.71875 31.503124 348.82812 33.1125Q347.23438 34.440624 346.78125 34.909374Q346.34375 35.378124 346.04688 35.8625L353.0625 35.8625ZM354.82812 30.4875Q354.82812 27.95625 355.34375 26.409374Q355.875 24.846874 356.90625 24.01875Q357.9375 23.175 359.5 23.175Q360.65625 23.175 361.51562 23.64375Q362.39062 24.096874 362.95312 24.971874Q363.51562 25.846874 363.84375 27.1125Q364.17188 28.3625 364.17188 30.4875Q364.17188 33.003124 363.64062 34.55Q363.125 36.096874 362.09375 36.95625Q361.07812 37.8 359.5 37.8Q357.42188 37.8 356.25 36.315624Q354.82812 34.51875 354.82812 30.4875ZM356.64062 30.4875Q356.64062 34.01875 357.45312 35.190624Q358.28125 36.346874 359.5 36.346874Q360.70312 36.346874 361.53125 35.175Q362.35938 34.003124 362.35938 30.4875Q362.35938 26.95625 361.53125 25.8Q360.70312 24.628124 359.48438 24.628124Q358.26562 24.628124 357.54688 25.659374Q356.64062 26.95625 356.64062 30.4875ZM375.0625 35.8625L375.0625 37.55L365.60938 37.55Q365.59375 36.909374 365.8125 36.33125Q366.17188 35.3625 366.96875 34.425Q367.76562 33.4875 369.26562 32.253124Q371.60938 30.346874 372.42188 29.2375Q373.25 28.1125 373.25 27.1125Q373.25 26.065624 372.5 25.346874Q371.75 24.628124 370.54688 24.628124Q369.28125 24.628124 368.51562 25.39375Q367.75 26.159374 367.75 27.503124L365.9375 27.315624Q366.125 25.3 367.32812 24.2375Q368.54688 23.175 370.59375 23.175Q372.64062 23.175 373.84375 24.315624Q375.04688 25.45625 375.04688 27.14375Q375.04688 28.003124 374.6875 28.846874Q374.34375 29.675 373.53125 30.596874Q372.71875 31.503124 370.82812 33.1125Q369.23438 34.440624 368.78125 34.909374Q368.34375 35.378124 368.04688 35.8625L375.0625 35.8625ZM376.82812 30.4875Q376.82812 27.95625 377.34375 26.409374Q377.875 24.846874 378.90625 24.01875Q379.9375 23.175 381.5 23.175Q382.65625 23.175 383.51562 23.64375Q384.39062 24.096874 384.95312 24.971874Q385.51562 25.846874 385.84375 27.1125Q386.17188 28.3625 386.17188 30.4875Q386.17188 33.003124 385.64062 34.55Q385.125 36.096874 384.09375 36.95625Q383.07812 37.8 381.5 37.8Q379.42188 37.8 378.25 36.315624Q376.82812 34.51875 376.82812 30.4875ZM378.64062 30.4875Q378.64062 34.01875 379.45312 35.190624Q380.28125 36.346874 381.5 36.346874Q382.70312 36.346874 383.53125 35.175Q384.35938 34.003124 384.35938 30.4875Q384.35938 26.95625 383.53125 25.8Q382.70312 24.628124 381.48438 24.628124Q380.26562 24.628124 379.54688 25.659374Q378.64062 26.95625 378.64062 30.4875Z" fill-rule="nonzero"></path></svg> 